# This file uses centimeters as units for non-parametric coordinates.

mtllib carrot.mtl
v 0.313710 -3.429861 -0.380530
v -0.098057 -3.429861 -0.474513
v -0.428268 -3.429861 -0.211178
v -0.428268 -3.429861 0.211178
v -0.098057 -3.429861 0.474513
v 0.313710 -3.429861 0.380530
v 0.496964 -3.429861 0.000000
v 0.362409 -3.186628 -0.446864
v -0.121138 -3.186628 -0.557231
v -0.508912 -3.186628 -0.247991
v -0.508912 -3.186628 0.247991
v -0.121138 -3.186628 0.557231
v 0.362409 -3.186628 0.446865
v 0.577607 -3.186628 0.000000
v 0.366243 -2.786628 -0.452087
v -0.122955 -2.786628 -0.563743
v -0.515261 -2.786628 -0.250889
v -0.515261 -2.786628 0.250889
v -0.122955 -2.786628 0.563743
v 0.366243 -2.786628 0.452087
v 0.583957 -2.786628 0.000000
v 0.313673 -1.751668 -0.380480
v -0.098040 -1.751668 -0.474451
v -0.428208 -1.751668 -0.211150
v -0.428208 -1.751668 0.211150
v -0.098040 -1.751668 0.474451
v 0.313673 -1.751668 0.380480
v 0.496903 -1.751668 0.000000
v 0.253478 -0.973715 -0.298485
v -0.069510 -0.973715 -0.372205
v -0.328526 -0.973715 -0.165647
v -0.328526 -0.973715 0.165647
v -0.069510 -0.973715 0.372205
v 0.253478 -0.973715 0.298485
v 0.397221 -0.973715 0.000000
v 0.117335 -0.153169 -0.113041
v -0.004985 -0.153169 -0.140958
v -0.103077 -0.153169 -0.062733
v -0.103077 -0.153169 0.062733
v -0.004985 -0.153169 0.140958
v 0.117335 -0.153169 0.113041
v 0.171772 -0.153169 0.000000
v 0.027188 -0.153169 0.000000
v 0.190187 -3.481345 -0.220518
v 0.296383 -3.481345 0.000000
v 0.190187 -3.481345 0.220518
v -0.048433 -3.481345 0.274981
v -0.239791 -3.481345 0.122378
v -0.239791 -3.481345 -0.122378
v -0.048433 -3.481345 -0.274981
v -0.036624 -3.570605 -0.232660
v 0.165271 -3.570605 -0.186579
v 0.016479 -3.570605 0.000000
v -0.198531 -3.570605 -0.103543
v -0.198531 -3.570605 0.103544
v -0.036624 -3.570605 0.232660
v 0.165271 -3.570605 0.186579
v 0.255123 -3.570605 0.000000
v 0.350991 -3.359000 -0.431312
v -0.115726 -3.359000 -0.537837
v -0.490005 -3.359000 -0.239360
v -0.490005 -3.359000 0.239360
v -0.115726 -3.359000 0.537837
v 0.350991 -3.359000 0.431312
v 0.558700 -3.359000 0.000000
v 0.226067 -3.501078 -0.266362
v 0.354341 -3.501078 0.000000
v 0.226067 -3.501078 0.266363
v -0.062161 -3.501078 0.332149
v -0.293302 -3.501078 0.147820
v -0.293302 -3.501078 -0.147820
v -0.062161 -3.501078 -0.332149
vt 0.597420 0.034089
vt 0.465231 0.003918
vt 0.359224 0.088456
vt 0.359224 0.224044
vt 0.465231 0.308582
vt 0.597420 0.278411
vt 0.656250 0.156250
vt 0.375000 0.312500
vt 0.410714 0.312500
vt 0.446429 0.312500
vt 0.482143 0.312500
vt 0.517857 0.312500
vt 0.553571 0.312500
vt 0.589286 0.312500
vt 0.625000 0.312500
vt 0.375000 0.387688
vt 0.410714 0.387688
vt 0.446429 0.387688
vt 0.482143 0.387688
vt 0.517857 0.387688
vt 0.553571 0.387688
vt 0.589286 0.387688
vt 0.625000 0.387688
vt 0.375000 0.462876
vt 0.410714 0.462876
vt 0.446429 0.462876
vt 0.482143 0.462876
vt 0.517857 0.462876
vt 0.553571 0.462876
vt 0.589286 0.462876
vt 0.625000 0.462876
vt 0.375000 0.538064
vt 0.410714 0.538064
vt 0.446429 0.538064
vt 0.482143 0.538064
vt 0.517857 0.538064
vt 0.553571 0.538064
vt 0.589286 0.538064
vt 0.625000 0.538064
vt 0.375000 0.613252
vt 0.410714 0.613252
vt 0.446429 0.613252
vt 0.482143 0.613252
vt 0.517857 0.613252
vt 0.553571 0.613252
vt 0.589286 0.613252
vt 0.625000 0.613252
vt 0.375000 0.688440
vt 0.410714 0.688440
vt 0.446429 0.688440
vt 0.482143 0.688440
vt 0.517857 0.688440
vt 0.553571 0.688440
vt 0.589286 0.688440
vt 0.625000 0.688440
vt 0.597420 0.721589
vt 0.465231 0.691418
vt 0.359224 0.775956
vt 0.359224 0.911544
vt 0.465231 0.996082
vt 0.597420 0.965911
vt 0.656250 0.843750
vt 0.500000 0.150000
vt 0.500000 0.837500
vt 0.570462 0.066164
vt 0.613012 0.154520
vt 0.570462 0.242877
vt 0.474853 0.264699
vt 0.398180 0.203554
vt 0.398180 0.105487
vt 0.474853 0.044342
vt 0.474853 0.044342
vt 0.570462 0.066164
vt 0.398180 0.105487
vt 0.398180 0.203554
vt 0.474853 0.264699
vt 0.570462 0.242877
vt 0.613012 0.154520
vt 0.625000 0.340124
vt 0.375000 0.340124
vt 0.410714 0.340124
vt 0.446429 0.340124
vt 0.482143 0.340124
vt 0.517857 0.340124
vt 0.553571 0.340124
vt 0.589286 0.340124
vt 0.580366 0.054380
vt 0.628897 0.155156
vt 0.580366 0.255932
vt 0.471318 0.280822
vt 0.383867 0.211082
vt 0.383867 0.099229
vt 0.471318 0.029490
vn 0.215177 -0.254800 -0.942749
vn 0.215620 -0.247113 -0.944692
vn 0.222345 -0.039785 -0.974156
vn 0.222343 -0.040000 -0.974148
vn -0.601039 -0.265930 -0.753680
vn -0.602103 -0.259666 -0.755014
vn -0.622948 -0.041678 -0.781152
vn -0.622943 -0.041858 -0.781146
vn -0.963410 -0.268033 -0.000000
vn -0.963410 -0.268033 -0.000000
vn -0.999092 -0.042602 -0.000000
vn -0.999092 -0.042602 -0.000000
vn -0.602103 -0.259665 0.755014
vn -0.601039 -0.265930 0.753680
vn -0.622943 -0.041858 0.781146
vn -0.622948 -0.041678 0.781152
vn 0.215620 -0.247113 0.944692
vn 0.215176 -0.254800 0.942749
vn 0.222343 -0.040000 0.974148
vn 0.222345 -0.039785 0.974156
vn 0.874703 -0.239697 0.421235
vn 0.873948 -0.243069 0.420871
vn 0.900303 -0.038434 0.433563
vn 0.900306 -0.038342 0.433565
vn 0.873948 -0.243069 -0.420871
vn 0.874703 -0.239697 -0.421235
vn 0.900306 -0.038342 -0.433565
vn 0.900303 -0.038434 -0.433563
vn 0.222237 0.050497 -0.973684
vn 0.222236 0.050625 -0.973678
vn -0.622617 0.052881 -0.780738
vn -0.622614 0.052989 -0.780733
vn -0.998541 0.053991 -0.000000
vn -0.998541 0.053991 -0.000000
vn -0.622614 0.052989 0.780733
vn -0.622617 0.052881 0.780738
vn 0.222236 0.050625 0.973678
vn 0.222237 0.050497 0.973684
vn 0.899901 0.048684 0.433369
vn 0.899903 0.048629 0.433370
vn 0.899903 0.048629 -0.433370
vn 0.899901 0.048684 -0.433369
vn 0.221555 0.093069 -0.970696
vn 0.221551 0.093255 -0.970679
vn -0.620524 0.097430 -0.778112
vn -0.620514 0.097586 -0.778100
vn -0.995044 0.099440 -0.000000
vn -0.995044 0.099440 -0.000000
vn -0.620514 0.097586 0.778100
vn -0.620524 0.097430 0.778112
vn 0.221551 0.093255 0.970679
vn 0.221555 0.093069 0.970696
vn 0.897336 0.089714 0.432134
vn 0.897342 0.089634 0.432137
vn 0.897342 0.089634 -0.432137
vn 0.897336 0.089714 -0.432134
vn 0.219458 0.165356 -0.961507
vn 0.219416 0.166473 -0.961324
vn -0.614083 0.173052 -0.770036
vn -0.613981 0.173983 -0.769907
vn -0.984230 0.176892 -0.000000
vn -0.984230 0.176892 -0.000000
vn -0.613981 0.173983 0.769907
vn -0.614083 0.173052 0.770036
vn 0.219416 0.166473 0.961324
vn 0.219457 0.165356 0.961507
vn 0.889356 0.160038 0.428291
vn 0.889426 0.159556 0.428325
vn 0.889426 0.159556 -0.428325
vn 0.889356 0.160038 -0.428291
vn 0.215503 0.249144 -0.944185
vn 0.215503 0.249144 -0.944185
vn -0.602031 0.260095 -0.754923
vn -0.602031 0.260095 -0.754923
vn -0.964266 0.264937 -0.000000
vn -0.964266 0.264937 -0.000000
vn -0.602031 0.260095 0.754923
vn -0.602031 0.260095 0.754923
vn 0.215503 0.249144 0.944185
vn 0.215503 0.249144 0.944185
vn 0.874571 0.240293 0.421171
vn 0.874571 0.240293 0.421171
vn 0.874571 0.240293 -0.421171
vn 0.874571 0.240293 -0.421171
vn 0.000000 -1.000000 0.000001
vn -0.000000 -1.000000 0.000000
vn -0.000000 -1.000000 -0.000000
vn -0.000000 -1.000000 0.000001
vn -0.000000 -1.000000 -0.000001
vn -0.000000 -1.000000 -0.000001
vn -0.000000 -1.000000 -0.000001
vn -0.000000 -1.000000 -0.000000
vn 0.000000 1.000000 0.000000
vn 0.000000 1.000000 -0.000001
vn 0.000000 1.000000 0.000000
vn 0.000000 1.000000 -0.000001
vn 0.000000 1.000000 0.000001
vn 0.000000 1.000000 0.000001
vn 0.000000 1.000000 0.000000
vn 0.000000 1.000000 0.000000
vn 0.218682 -0.937326 -0.271291
vn 0.350943 -0.936397 0.000000
vn -0.322308 -0.946635 0.000000
vn -0.200699 -0.947064 0.250577
vn 0.218682 -0.937326 0.271291
vn -0.200699 -0.947065 -0.250577
vn -0.074163 -0.939357 0.334826
vn 0.069998 -0.948016 -0.310429
vn -0.304653 -0.940930 0.147773
vn 0.284535 -0.948764 -0.137430
vn -0.304653 -0.940930 -0.147773
vn 0.284535 -0.948764 0.137430
vn -0.074163 -0.939357 -0.334826
vn 0.069998 -0.948016 0.310430
vn 0.204215 -0.397199 -0.894723
vn 0.204215 -0.397199 -0.894723
vn 0.204215 -0.397199 -0.894723
vn 0.204215 -0.397199 -0.894723
vn -0.567896 -0.412770 -0.712120
vn -0.567896 -0.412770 -0.712120
vn -0.567896 -0.412770 -0.712120
vn -0.567896 -0.412770 -0.712120
vn -0.907715 -0.419586 0.000000
vn -0.907715 -0.419586 0.000000
vn -0.907715 -0.419586 0.000000
vn -0.907715 -0.419586 0.000000
vn -0.567897 -0.412769 0.712120
vn -0.567897 -0.412769 0.712120
vn -0.567897 -0.412769 0.712120
vn -0.567897 -0.412769 0.712120
vn 0.204215 -0.397199 0.894723
vn 0.204215 -0.397199 0.894723
vn 0.204215 -0.397199 0.894723
vn 0.204215 -0.397199 0.894723
vn 0.831722 -0.384458 0.400537
vn 0.831722 -0.384458 0.400537
vn 0.831722 -0.384458 0.400537
vn 0.831722 -0.384458 0.400537
vn 0.831722 -0.384459 -0.400537
vn 0.831722 -0.384459 -0.400537
vn 0.831722 -0.384459 -0.400537
vn 0.831722 -0.384459 -0.400537
vn 0.172427 -0.632109 -0.755452
vn 0.172427 -0.632109 -0.755452
vn -0.474089 -0.649478 -0.594489
vn -0.474089 -0.649478 -0.594489
vn -0.753981 -0.656896 0.000000
vn -0.753981 -0.656896 0.000000
vn -0.474089 -0.649478 0.594490
vn -0.474089 -0.649478 0.594490
vn 0.172427 -0.632109 0.755451
vn 0.172427 -0.632109 0.755451
vn 0.708708 -0.617454 0.341297
vn 0.708708 -0.617454 0.341296
vn 0.708708 -0.617454 -0.341297
vn 0.708708 -0.617454 -0.341297
vn 0.274002 -0.896271 -0.348742
vn 0.446736 -0.894666 0.000000
vn 0.274002 -0.896271 0.348742
vn -0.100899 -0.899723 0.424638
vn -0.389055 -0.902346 0.185492
vn -0.389055 -0.902346 -0.185492
vn -0.100899 -0.899723 -0.424638
s 1
usemtl initialShadingGroup
f 59/80/1 60/81/2 9/17/3 8/16/4
s 2
f 60/81/5 61/82/6 10/18/7 9/17/8
s 3
f 61/82/9 62/83/10 11/19/11 10/18/12
s 4
f 62/83/13 63/84/14 12/20/15 11/19/16
s 5
f 63/84/17 64/85/18 13/21/19 12/20/20
s 6
f 64/85/21 65/86/22 14/22/23 13/21/24
s 7
f 65/86/25 59/79/26 8/23/27 14/22/28
s 1
f 8/16/4 9/17/3 16/25/29 15/24/30
s 2
f 9/17/8 10/18/7 17/26/31 16/25/32
s 3
f 10/18/12 11/19/11 18/27/33 17/26/34
s 4
f 11/19/16 12/20/15 19/28/35 18/27/36
s 5
f 12/20/20 13/21/19 20/29/37 19/28/38
s 6
f 13/21/24 14/22/23 21/30/39 20/29/40
s 7
f 14/22/28 8/23/27 15/31/41 21/30/42
s 1
f 15/24/30 16/25/29 23/33/43 22/32/44
s 2
f 16/25/32 17/26/31 24/34/45 23/33/46
s 3
f 17/26/34 18/27/33 25/35/47 24/34/48
s 4
f 18/27/36 19/28/35 26/36/49 25/35/50
s 5
f 19/28/38 20/29/37 27/37/51 26/36/52
s 6
f 20/29/40 21/30/39 28/38/53 27/37/54
s 7
f 21/30/42 15/31/41 22/39/55 28/38/56
s 1
f 22/32/44 23/33/43 30/41/57 29/40/58
s 2
f 23/33/46 24/34/45 31/42/59 30/41/60
s 3
f 24/34/48 25/35/47 32/43/61 31/42/62
s 4
f 25/35/50 26/36/49 33/44/63 32/43/64
s 5
f 26/36/52 27/37/51 34/45/65 33/44/66
s 6
f 27/37/54 28/38/53 35/46/67 34/45/68
s 7
f 28/38/56 22/39/55 29/47/69 35/46/70
s 1
f 29/40/58 30/41/57 37/49/71 36/48/72
s 2
f 30/41/60 31/42/59 38/50/73 37/49/74
s 3
f 31/42/62 32/43/61 39/51/75 38/50/76
s 4
f 32/43/64 33/44/63 40/52/77 39/51/78
s 5
f 33/44/66 34/45/65 41/53/79 40/52/80
s 6
f 34/45/68 35/46/67 42/54/81 41/53/82
s 7
f 35/46/70 29/47/69 36/55/83 42/54/84
s 8
f 51/72/85 52/73/86 53/63/87
f 54/74/88 51/72/85 53/63/87
f 55/75/89 54/74/88 53/63/87
f 56/76/90 55/75/89 53/63/87
f 57/77/91 56/76/90 53/63/87
f 58/78/92 57/77/91 53/63/87
f 52/73/86 58/78/92 53/63/87
s 9
f 36/61/93 37/60/94 43/64/95
f 37/60/94 38/59/96 43/64/95
f 38/59/96 39/58/97 43/64/95
f 39/58/97 40/57/98 43/64/95
f 40/57/98 41/56/99 43/64/95
f 41/56/99 42/62/100 43/64/95
f 42/62/100 36/61/93 43/64/95
s 10
f 66/87/101 67/88/102 45/66/103 44/65/104
f 67/88/102 68/89/105 46/67/106 45/66/103
f 68/89/105 69/90/107 47/68/108 46/67/106
f 69/90/107 70/91/109 48/69/110 47/68/108
f 70/91/109 71/92/111 49/70/112 48/69/110
f 71/92/111 72/93/113 50/71/114 49/70/112
f 72/93/113 66/87/101 44/65/104 50/71/114
s off
f 50/71/115 44/65/116 52/73/117 51/72/118
f 49/70/119 50/71/120 51/72/121 54/74/122
f 48/69/123 49/70/124 54/74/125 55/75/126
f 47/68/127 48/69/128 55/75/129 56/76/130
f 46/67/131 47/68/132 56/76/133 57/77/134
f 45/66/135 46/67/136 57/77/137 58/78/138
f 44/65/139 45/66/140 58/78/141 52/73/142
s 1
f 1/8/143 2/9/144 60/81/2 59/80/1
s 2
f 2/9/145 3/10/146 61/82/6 60/81/5
s 3
f 3/10/147 4/11/148 62/83/10 61/82/9
s 4
f 4/11/149 5/12/150 63/84/14 62/83/13
s 5
f 5/12/151 6/13/152 64/85/18 63/84/17
s 6
f 6/13/153 7/14/154 65/86/22 64/85/21
s 7
f 7/14/155 1/15/156 59/79/26 65/86/25
s 10
f 1/1/157 7/7/158 67/88/102 66/87/101
f 7/7/158 6/6/159 68/89/105 67/88/102
f 6/6/159 5/5/160 69/90/107 68/89/105
f 5/5/160 4/4/161 70/91/109 69/90/107
f 4/4/161 3/3/162 71/92/111 70/91/109
f 3/3/162 2/2/163 72/93/113 71/92/111
f 2/2/163 1/1/157 66/87/101 72/93/113
