# This file uses centimeters as units for non-parametric coordinates.

mtllib Ice Crystal 2.mtl
g default
v 0.499998 0.008753 -0.866027
v -0.500000 0.008754 -0.866026
v -1.000000 0.008754 -0.000000
v -0.500000 0.008754 0.866025
v 0.500000 0.008756 0.866025
v 0.999999 0.008754 0.000000
v 0.500000 7.318249 -0.866025
v -0.500000 7.527785 -0.866026
v -1.000000 7.527785 -0.000000
v -0.500000 7.293536 0.866025
v 0.500000 6.938141 0.866025
v 1.000000 7.109481 0.000000
v 0.000000 0.008754 0.000000
v 0.000000 9.076412 0.000000
v 0.500000 1.484630 -0.866025
v -0.500000 1.474702 -0.866026
v -1.000000 1.474702 -0.000000
v -0.500000 1.474702 0.866025
v 0.500000 1.474702 0.866025
v 1.000000 1.484630 0.000000
v 1.629963 0.005208 -0.168928
v 1.129964 0.005208 -1.383568
v 1.129964 1.475888 -1.383568
v 1.629963 1.475888 -0.168928
v 1.916960 1.451224 -0.894488
v 1.919484 -0.004797 -0.890114
v 1.419904 4.558386 -0.298653
v 1.171888 4.558386 -0.809937
v 2.011985 4.551363 -0.298650
v 2.242519 4.531551 -0.881466
v 1.610354 4.551363 -1.274327
v 1.814715 5.068594 -0.772438
v -0.854845 0.008754 1.589676
v 0.885778 0.008754 1.526055
v 0.885778 1.474702 1.526055
v -0.854845 1.474702 1.589676
v -0.000000 1.474702 2.397710
v -0.000000 0.008754 2.397710
v -0.653636 4.889508 1.349276
v 0.068953 4.889508 1.349276
v -0.910043 4.889508 1.872178
v -0.292342 4.889508 2.456054
v 0.347712 4.889508 1.826206
v -0.361211 5.420281 2.044089
v 1.000000 1.484630 0.000000
v 0.500000 1.474702 0.866025
v 1.629963 1.475888 -0.168928
v 0.885778 1.474702 1.526055
v 0.741007 0.008754 -1.521409
v -0.530120 0.005260 -1.592980
v -0.530120 1.471208 -1.592980
v 0.741007 1.484630 -1.521409
v 0.061602 1.479666 -2.034637
v 0.061602 0.008754 -2.034637
v 0.352483 5.237088 -1.501267
v -0.372018 5.229895 -1.501268
v 0.527092 5.237088 -1.976093
v 0.034863 5.233491 -2.347927
v -0.393840 5.227364 -2.027947
v 0.074826 5.926445 -2.036417
v 0.751704 6.199410 0.430062
v 0.544648 7.306972 0.288423
vt 0.578125 0.020934
vt 0.421875 0.020934
vt 0.343750 0.156250
vt 0.421875 0.291566
vt 0.578125 0.291566
vt 0.656250 0.156250
vt 0.375000 0.312500
vt 0.416667 0.312500
vt 0.458333 0.312500
vt 0.500000 0.312500
vt 0.541667 0.312500
vt 0.583333 0.312500
vt 0.625000 0.312500
vt 0.375000 0.688440
vt 0.416667 0.688440
vt 0.458333 0.688440
vt 0.500000 0.688440
vt 0.541667 0.688440
vt 0.583333 0.688440
vt 0.625000 0.688440
vt 0.578125 0.708434
vt 0.421875 0.708434
vt 0.343750 0.843750
vt 0.421875 0.979066
vt 0.578125 0.979066
vt 0.656250 0.843750
vt 0.500000 0.150000
vt 0.500000 0.837500
vt 0.625000 0.393915
vt 0.375000 0.393915
vt 0.416667 0.393915
vt 0.458333 0.393915
vt 0.500000 0.393915
vt 0.541667 0.393915
vt 0.583333 0.393915
vt 0.583333 0.312500
vt 0.625000 0.312500
vt 0.625000 0.393915
vt 0.583333 0.393915
vt 0.604377 0.393915
vt 0.604167 0.312500
vt 0.625000 0.393915
vt 0.583333 0.393915
vt 0.583333 0.393915
vt 0.604377 0.393915
vt 0.625000 0.393915
vt 0.600404 0.393915
vt 0.500000 0.312500
vt 0.541667 0.312500
vt 0.541667 0.393915
vt 0.500000 0.393915
vt 0.520833 0.393915
vt 0.520833 0.312500
vt 0.541667 0.393915
vt 0.500000 0.393915
vt 0.500000 0.393915
vt 0.520833 0.393915
vt 0.541667 0.393915
vt 0.517029 0.393915
vt 0.583333 0.393915
vt 0.541667 0.393915
vt 0.583333 0.393915
vt 0.541667 0.393915
vt 0.375000 0.312500
vt 0.416667 0.312500
vt 0.416667 0.393915
vt 0.375000 0.393915
vt 0.395833 0.393915
vt 0.395833 0.312500
vt 0.416667 0.393915
vt 0.375000 0.393915
vt 0.375000 0.393915
vt 0.395833 0.393915
vt 0.416667 0.393915
vt 0.394297 0.393915
vt 0.617454 0.776553
vt 0.562642 0.688440
vt 0.617574 0.776762
vn 0.000000 0.000000 -1.000000
vn 0.000000 0.000000 -1.000000
vn 0.000000 0.000000 -1.000000
vn 0.000000 0.000000 -1.000000
vn -0.866025 0.000000 -0.500000
vn -0.866025 0.000000 -0.500000
vn -0.866025 0.000000 -0.500000
vn -0.866025 0.000000 -0.500000
vn -0.866026 0.000000 0.500000
vn -0.866026 0.000000 0.500000
vn -0.866026 0.000000 0.500000
vn -0.866026 0.000000 0.500000
vn -0.000000 0.000000 1.000000
vn -0.000000 0.000000 1.000000
vn -0.000000 0.000000 1.000000
vn -0.000000 0.000000 1.000000
vn 0.866025 0.000000 0.500000
vn 0.866025 0.000000 0.500000
vn 0.866025 0.000000 0.500000
vn 0.866025 0.000000 0.500000
vn 0.866025 0.000000 0.500000
vn 0.866026 0.000000 -0.500000
vn 0.866026 0.000000 -0.500000
vn 0.866026 0.000000 -0.500000
vn 0.866025 0.000000 -0.500000
vn 0.001235 -0.999999 0.000593
vn -0.002574 -0.999995 0.001840
vn 0.000000 -1.000000 0.000001
vn 0.000000 -1.000000 0.000000
vn 0.000001 -1.000000 -0.000001
vn 0.000001 -1.000000 -0.000000
vn -0.005819 -0.999980 0.002548
vn 0.545023 0.490082 -0.680271
vn -0.356233 0.541042 -0.761821
vn 0.036577 0.998626 0.037528
vn -0.837317 0.540684 0.081006
vn -0.269151 0.480829 0.834483
vn 0.453705 0.411261 0.790580
vn 0.795294 0.300181 0.526686
vn 0.837199 0.220514 0.500471
vn 0.897013 0.441901 -0.009544
vn 0.062754 -0.058655 -0.996304
vn 0.057150 0.000000 -0.998366
vn -0.598148 0.000000 -0.801386
vn -0.597121 -0.045197 -0.800877
vn -0.866025 -0.000000 -0.500000
vn -0.866025 -0.000000 -0.500000
vn -0.866026 0.000000 0.500000
vn -0.866026 0.000000 0.500000
vn 0.119252 -0.002226 0.992862
vn 0.036526 -0.000000 0.999333
vn 0.701402 -0.000000 0.712766
vn 0.701142 0.027205 0.712503
vn 0.910299 -0.063974 -0.408978
vn 0.926468 0.000237 -0.376375
vn 0.528906 -0.000812 -0.848680
vn 0.527379 -0.030101 -0.849097
vn -0.008253 -0.999959 0.003613
vn -0.008253 -0.999959 0.003613
vn -0.008253 -0.999959 0.003613
vn -0.634791 0.000001 -0.772684
vn -0.655986 0.083356 -0.750156
vn -0.659686 0.100335 -0.744814
vn -0.634791 0.000001 -0.772684
vn -0.616361 0.782837 -0.085235
vn 0.164265 0.979595 -0.115804
vn -0.177552 0.720553 -0.670282
vn 0.259005 -0.000000 0.965876
vn 0.259005 -0.000000 0.965876
vn 0.259005 -0.000000 0.965876
vn 0.259005 -0.000000 0.965876
vn 0.928969 0.001355 0.370155
vn 0.927115 -0.060631 0.369840
vn -0.865624 0.172284 0.470120
vn -0.865625 0.172284 0.470120
vn -0.865625 0.172284 0.470120
vn -0.865625 0.172284 0.470120
vn 0.137397 0.050993 0.989203
vn 0.137397 0.050993 0.989203
vn 0.137397 0.050993 0.989203
vn 0.137397 0.050993 0.989203
vn 0.924148 -0.099233 0.368922
vn 0.924148 -0.099233 0.368922
vn 0.525940 -0.051998 -0.848930
vn 0.525940 -0.051998 -0.848930
vn -0.668378 0.144860 -0.729580
vn -0.668378 0.144860 -0.729580
vn 0.730526 0.633629 -0.254651
vn -0.370052 0.769587 0.520382
vn 0.349147 0.701876 0.620860
vn 0.000000 -1.000000 -0.000001
vn 0.000000 -1.000000 -0.000001
vn 0.000000 -1.000000 -0.000001
vn 0.997100 -0.000000 0.076106
vn 0.997139 -0.000000 0.075595
vn 0.866026 -0.000000 0.500000
vn 0.866025 -0.000000 0.500000
vn 0.593795 0.804165 -0.026960
vn -0.050590 0.954398 0.294220
vn 0.147372 0.618311 0.771993
vn -0.897791 0.012792 -0.440235
vn -0.897865 0.000000 -0.440271
vn -0.897865 0.000000 -0.440271
vn -0.897759 0.015384 -0.440219
vn -0.686929 0.000000 0.726725
vn -0.686206 -0.045856 0.725960
vn 0.000000 0.140120 -0.990135
vn 0.000000 0.140120 -0.990135
vn 0.000000 0.140120 -0.990135
vn 0.000000 0.140120 -0.990135
vn -0.897649 0.021904 -0.440166
vn -0.897649 0.021904 -0.440166
vn -0.685193 -0.071045 0.724888
vn -0.685193 -0.071045 0.724888
vn 0.700599 0.047814 0.711951
vn 0.700599 0.047814 0.711951
vn 0.849632 0.177525 -0.496599
vn 0.849632 0.177525 -0.496599
vn 0.849632 0.177525 -0.496599
vn 0.849632 0.177525 -0.496599
vn -0.690039 0.723160 -0.029774
vn -0.224381 0.817657 -0.530179
vn 0.243460 0.837564 -0.489094
vn 0.000000 0.000000 0.000000
vn 0.000000 0.000000 0.000000
vn 0.000000 0.000000 0.000000
vn 0.000000 0.000000 0.000000
vn 0.000000 0.000000 0.000000
vn 0.000000 0.000000 0.000000
vn 0.000000 0.000000 0.000000
vn 0.000000 0.000000 0.000000
vn 0.000000 0.000000 0.000000
vn 0.000000 0.000000 0.000000
vn 0.000000 0.000000 0.000000
vn 0.000000 0.000000 0.000000
vn 0.000000 0.000000 0.000000
vn 0.000000 0.000000 0.000000
vn 0.000000 0.000000 0.000000
vn 0.000000 -0.000000 -0.000000
vn 0.000000 -0.000000 -0.000000
vn 0.863345 -0.000000 -0.504614
vn 0.001872 -0.999998 0.000899
vn 0.001872 -0.999998 0.000899
vn 0.001872 -0.999998 0.000899
vn -0.999143 0.000000 0.041398
vn -0.998849 0.024445 0.041269
vn -0.998698 0.030024 0.041236
vn -0.999143 0.000000 0.041398
vn 0.083142 0.979902 -0.181327
vn 0.836742 0.542331 -0.075763
vn -0.021422 0.410949 -0.911407
vn 0.936967 0.058088 0.344555
vn 0.938552 -0.000001 0.345138
vn 0.938552 -0.000001 0.345138
vn 0.936330 0.068779 0.344320
vn 0.602758 0.000000 -0.797924
vn 0.602483 -0.038878 -0.797184
vn -0.001657 0.166849 0.985981
vn -0.001657 0.166849 0.985981
vn -0.001657 0.166849 0.985981
vn -0.001657 0.166849 0.985981
vn 0.934317 0.094894 0.343579
vn 0.934317 0.094894 0.343579
vn 0.601881 -0.062160 -0.796163
vn 0.601881 -0.062160 -0.796163
vn -0.595986 -0.071000 -0.799850
vn -0.595986 -0.071000 -0.799850
vn -0.998311 0.040988 0.041167
vn -0.998311 0.040988 0.041167
vn -0.376063 0.704058 0.602394
vn -0.812435 0.542057 -0.214766
vn 0.293978 0.657187 0.694034
s off
g pCylinder1
usemtl initialShadingGroup
f 15/30/1 16/31/2 8/15/3 7/14/4
s 1
f 16/31/5 17/32/6 9/16/7 8/15/8
s 2
f 17/32/9 18/33/10 10/17/11 9/16/12
s off
f 18/33/13 19/34/14 11/18/15 10/17/16
f 19/34/17 20/35/18 12/19/19 61/77/20 11/18/21
f 20/35/22 15/29/23 7/20/24 12/19/25
s 3
f 2/2/26 1/1/27 13/27/28
f 3/3/29 2/2/26 13/27/28
f 4/4/30 3/3/29 13/27/28
f 5/5/31 4/4/30 13/27/28
f 6/6/32 5/5/31 13/27/28
f 1/1/27 6/6/32 13/27/28
s 4
f 7/25/33 8/24/34 14/28/35
f 8/24/34 9/23/36 14/28/35
f 9/23/36 10/22/37 14/28/35
f 10/22/37 11/21/38 14/28/35
f 62/78/39 61/76/40 12/26/41
f 12/26/41 7/25/33 14/28/35
s 6
f 53/68/42 54/69/43 50/65/44 51/66/45
s 1
f 2/8/46 3/9/47 17/32/6 16/31/5
s 2
f 3/9/48 4/10/49 18/33/10 17/32/9
s 7
f 37/52/50 38/53/51 34/49/52 35/50/53
s 8
f 25/40/54 26/41/55 22/37/56 23/38/57
s 3
f 6/12/32 1/13/27 22/37/58 26/41/59 21/36/60
s 9
f 1/13/61 15/29/62 23/38/63 22/37/64
s 10
f 28/42/65 32/47/66 31/46/67
s off
f 21/36/68 47/62/69 45/60/70 6/12/71
s 8
f 21/36/72 26/41/55 25/40/54 24/39/73
s off
f 15/29/74 20/35/75 27/43/76 28/42/77
f 20/35/78 24/39/79 29/44/80 27/43/81
s 8
f 24/39/73 25/40/54 30/45/82 29/44/83
f 25/40/54 23/38/57 31/46/84 30/45/85
s 9
f 23/38/63 15/29/62 28/42/86 31/46/87
s 10
f 31/46/67 32/47/66 30/45/88
f 28/42/65 27/43/89 32/47/66
f 29/44/90 32/47/66 27/43/89
f 30/45/88 32/47/66 29/44/90
s 3
f 4/10/30 5/11/31 34/49/91 38/53/92 33/48/93
s 11
f 46/61/94 5/11/95 6/12/96 45/60/97
s 12
f 43/58/98 44/59/99 42/57/100
s 13
f 18/33/101 4/10/102 33/48/103 36/51/104
s 7
f 33/48/105 38/53/51 37/52/50 36/51/106
s off
f 19/34/107 18/33/108 39/55/109 40/54/110
s 13
f 18/33/101 36/51/104 41/56/111 39/55/112
s 7
f 36/51/106 37/52/50 42/57/113 41/56/114
f 37/52/50 35/50/53 43/58/115 42/57/116
s off
f 35/50/117 19/34/118 40/54/119 43/58/120
s 12
f 41/56/121 44/59/99 39/55/122
f 40/54/123 39/55/122 44/59/99
f 40/54/123 44/59/99 43/58/98
f 42/57/100 44/59/99 41/56/121
s off
f 20/35/124 19/34/125 46/61/126 45/60/127
f 21/36/128 24/39/129 47/62/130
f 24/39/131 20/35/132 45/60/133 47/62/134
f 19/34/135 35/50/136 48/63/137 46/61/138
s 11
f 48/63/139 35/50/140 34/49/141 5/11/95 46/61/94
s 3
f 1/7/27 2/8/26 50/65/142 54/69/143 49/64/144
s 14
f 2/8/145 16/31/146 51/66/147 50/65/148
s 15
f 60/75/149 57/72/150 58/73/151
s 16
f 15/30/152 1/7/153 49/64/154 52/67/155
s 6
f 49/64/156 54/69/43 53/68/42 52/67/157
s off
f 16/31/158 15/30/159 55/71/160 56/70/161
s 16
f 15/30/152 52/67/155 57/72/162 55/71/163
s 6
f 52/67/157 53/68/42 58/73/164 57/72/165
f 53/68/42 51/66/45 59/74/166 58/73/167
s 14
f 51/66/147 16/31/146 56/70/168 59/74/169
s 15
f 56/70/170 60/75/149 59/74/171
f 60/75/149 58/73/151 59/74/171
f 56/70/170 55/71/172 60/75/149
f 60/75/149 55/71/172 57/72/150
s 4
f 14/28/35 62/78/39 12/26/41
f 11/21/38 62/78/39 14/28/35
f 11/21/38 61/76/40 62/78/39
