# This file uses centimeters as units for non-parametric coordinates.

mtllib Ice Crystal 1.mtl
g default
v 0.607410 -0.099820 -1.052065
v -0.607410 -0.099820 -1.052065
v -1.214820 -0.099820 -0.000000
v -0.607410 -0.099820 1.052065
v 0.607410 -0.099820 1.052065
v 1.214820 -0.099820 0.000000
v 0.359762 5.316865 -0.623126
v -0.359762 5.662923 -0.623126
v -0.719524 5.711180 -0.000000
v -0.359762 5.342112 0.623126
v 0.359762 5.246286 0.623126
v 0.719524 5.173953 -0.000000
v 0.000000 -0.099820 0.000000
v 0.000000 5.765659 0.000000
v 0.729095 0.160177 -1.262830
v -0.729095 0.182079 -1.262830
v -1.458190 0.185133 -0.000000
v -0.729095 0.161775 1.262830
v 0.729095 0.155710 1.262830
v 1.458190 0.151132 0.000000
v 0.521996 4.531957 -0.904123
v 1.043992 4.361274 0.000000
v 0.521996 4.447663 0.904123
v -0.521996 4.562110 0.904123
v -1.043992 5.002897 -0.000000
v -0.521996 4.945263 -0.904124
vt 0.578125 0.020934
vt 0.421875 0.020934
vt 0.343750 0.156250
vt 0.421875 0.291566
vt 0.578125 0.291566
vt 0.656250 0.156250
vt 0.375000 0.312500
vt 0.416667 0.312500
vt 0.458333 0.312500
vt 0.500000 0.312500
vt 0.541667 0.312500
vt 0.583333 0.312500
vt 0.625000 0.312500
vt 0.375000 0.688440
vt 0.416667 0.688440
vt 0.458333 0.688440
vt 0.500000 0.688440
vt 0.541667 0.688440
vt 0.583333 0.688440
vt 0.625000 0.688440
vt 0.578125 0.708434
vt 0.421875 0.708434
vt 0.343750 0.843750
vt 0.421875 0.979066
vt 0.578125 0.979066
vt 0.656250 0.843750
vt 0.500000 0.150000
vt 0.500000 0.837500
vt 0.625000 0.327763
vt 0.375000 0.327763
vt 0.416667 0.327763
vt 0.458333 0.327763
vt 0.500000 0.327763
vt 0.541667 0.327763
vt 0.583333 0.327763
vt 0.625000 0.635562
vt 0.375000 0.635562
vt 0.583333 0.635562
vt 0.541667 0.635562
vt 0.500000 0.635562
vt 0.458333 0.635562
vt 0.416667 0.635562
vn 0.012663 0.036311 -0.999260
vn 0.012689 0.037439 -0.999218
vn 0.033793 0.118508 -0.992378
vn 0.021859 0.094729 -0.995263
vn -0.864655 0.034870 -0.501154
vn -0.864650 0.035023 -0.501152
vn -0.859651 0.102052 -0.500585
vn -0.860059 0.098711 -0.500555
vn -0.858646 0.037099 0.511225
vn -0.858699 0.035903 0.511222
vn -0.850573 0.093486 0.517480
vn -0.841145 0.118760 0.527609
vn 0.003691 0.039153 0.999226
vn 0.003689 0.038832 0.999239
vn 0.007263 0.105602 0.994382
vn 0.008215 0.112327 0.993637
vn 0.866750 0.040094 0.497129
vn 0.866758 0.039848 0.497135
vn 0.863749 0.108324 0.492141
vn 0.863529 0.113409 0.491381
vn 0.868128 0.039313 -0.494780
vn 0.868114 0.039796 -0.494767
vn 0.866563 0.115323 -0.485561
vn 0.866485 0.105305 -0.487970
vn 0.000000 -1.000000 0.000000
vn 0.000000 -1.000000 0.000000
vn 0.000000 -1.000000 -0.000000
vn 0.000000 -1.000000 0.000000
vn 0.000000 -1.000000 -0.000000
vn 0.000000 -1.000000 -0.000000
vn 0.000000 -1.000000 0.000000
vn 0.541770 0.798538 -0.262340
vn 0.205963 0.939474 -0.273804
vn 0.301913 0.943199 0.138654
vn -0.072840 0.962027 0.263057
vn 0.035350 0.816914 0.575676
vn 0.402006 0.804044 0.438069
vn 0.634359 0.771392 0.050429
vn -0.005031 -0.613983 -0.789303
vn -0.005031 -0.613983 -0.789303
vn -0.695279 -0.596725 -0.400632
vn -0.695279 -0.596725 -0.400632
vn -0.688419 -0.610711 0.391296
vn -0.688419 -0.610711 0.391296
vn -0.001434 -0.631825 0.775110
vn -0.001434 -0.631825 0.775110
vn 0.665099 -0.639702 0.385260
vn 0.665099 -0.639702 0.385260
vn 0.666953 -0.636379 -0.387551
vn 0.666953 -0.636379 -0.387551
vn 0.844987 0.331267 -0.419833
vn 0.844987 0.331267 -0.419833
vn 0.832170 0.329182 0.446243
vn 0.832170 0.329182 0.446243
vn 0.039957 0.335116 0.941329
vn 0.039957 0.335115 0.941329
vn -0.719664 0.348706 0.600406
vn -0.719664 0.348706 0.600406
vn -0.794506 0.366582 -0.484126
vn -0.794506 0.366582 -0.484126
vn 0.149160 0.346402 -0.926152
vn 0.149160 0.346402 -0.926152
s 1
g pCylinder1
usemtl initialShadingGroup
f 15/30/1 16/31/2 26/42/3 21/37/4
s 2
f 16/31/5 17/32/6 25/41/7 26/42/8
s 3
f 17/32/9 18/33/10 24/40/11 25/41/12
s 4
f 18/33/13 19/34/14 23/39/15 24/40/16
s 5
f 19/34/17 20/35/18 22/38/19 23/39/20
s 6
f 20/35/21 15/29/22 21/36/23 22/38/24
s 7
f 2/2/25 1/1/26 13/27/27
f 3/3/28 2/2/25 13/27/27
f 4/4/29 3/3/28 13/27/27
f 5/5/30 4/4/29 13/27/27
f 6/6/31 5/5/30 13/27/27
f 1/1/26 6/6/31 13/27/27
s 8
f 7/25/32 8/24/33 14/28/34
f 8/24/33 9/23/35 14/28/34
f 9/23/35 10/22/36 14/28/34
f 10/22/36 11/21/37 14/28/34
f 11/21/37 12/26/38 14/28/34
f 12/26/38 7/25/32 14/28/34
s 1
f 1/7/39 2/8/40 16/31/2 15/30/1
s 2
f 2/8/41 3/9/42 17/32/6 16/31/5
s 3
f 3/9/43 4/10/44 18/33/10 17/32/9
s 4
f 4/10/45 5/11/46 19/34/14 18/33/13
s 5
f 5/11/47 6/12/48 20/35/18 19/34/17
s 6
f 6/12/49 1/13/50 15/29/22 20/35/21
f 22/38/24 21/36/23 7/20/51 12/19/52
s 5
f 23/39/20 22/38/19 12/19/53 11/18/54
s 4
f 24/40/16 23/39/15 11/18/55 10/17/56
s 3
f 25/41/12 24/40/11 10/17/57 9/16/58
s 2
f 26/42/8 25/41/7 9/16/59 8/15/60
s 1
f 21/37/4 26/42/3 8/15/61 7/14/62
