# This file uses centimeters as units for non-parametric coordinates.

mtllib Lava.mtl
v -0.495646 0.047484 -0.211042
v -0.397823 0.047484 -0.121437
v -0.300000 0.047484 -0.060749
v -0.202177 0.047484 -0.012121
v -0.104354 0.047484 0.026850
v 0.000000 0.047484 0.039777
v 0.104354 0.047484 0.026850
v 0.202177 0.047484 -0.012121
v 0.300000 0.047484 -0.060749
v 0.397823 0.047484 -0.121437
v 0.495646 0.047484 -0.211042
v -0.495646 0.360214 -0.290277
v -0.397823 0.360214 -0.200672
v -0.300000 0.360214 -0.139983
v -0.202177 0.360214 -0.091356
v -0.104354 0.360214 -0.052384
v 0.000000 0.360214 -0.039458
v 0.104354 0.360214 -0.052384
v 0.202177 0.360214 -0.091356
v 0.300000 0.360214 -0.139983
v 0.397823 0.360214 -0.200672
v 0.495646 0.360214 -0.290277
v -0.495646 0.672944 -0.384121
v -0.397823 0.672944 -0.294517
v -0.300000 0.672944 -0.233828
v -0.202177 0.672944 -0.185200
v -0.104354 0.672944 -0.146229
v 0.000000 0.672944 -0.133302
v 0.104354 0.672944 -0.146229
v 0.202177 0.672944 -0.185200
v 0.300000 0.672944 -0.233828
v 0.397823 0.672944 -0.294517
v 0.495646 0.672944 -0.384121
v -0.495646 0.985673 -0.485124
v -0.397823 0.985673 -0.395519
v -0.300000 0.985673 -0.334830
v -0.202177 0.985673 -0.286203
v -0.104354 0.985673 -0.247231
v 0.000000 0.985673 -0.234305
v 0.104354 0.985673 -0.247231
v 0.202177 0.985673 -0.286203
v 0.300000 0.985673 -0.334830
v 0.397823 0.985673 -0.395519
v 0.495646 0.985673 -0.485124
v -0.495646 1.298403 -0.593091
v -0.397823 1.298403 -0.503486
v -0.300000 1.298403 -0.442797
v -0.202177 1.298403 -0.394170
v -0.104354 1.298403 -0.355198
v 0.000000 1.298403 -0.342272
v 0.104354 1.298403 -0.355198
v 0.202177 1.298403 -0.394170
v 0.300000 1.298403 -0.442797
v 0.397823 1.298403 -0.503486
v 0.495646 1.298403 -0.593091
v -0.495646 1.611133 -0.722980
v -0.397823 1.611133 -0.633376
v -0.300000 1.611133 -0.572687
v -0.202177 1.611133 -0.524060
v -0.104354 1.611133 -0.485088
v 0.000000 1.611133 -0.472162
v 0.104354 1.611133 -0.485088
v 0.202177 1.611133 -0.524060
v 0.300000 1.611133 -0.572687
v 0.397823 1.611133 -0.633376
v 0.495646 1.611133 -0.722980
v -0.495646 1.923863 -0.873833
v -0.397823 1.923863 -0.784228
v -0.300000 1.923863 -0.723539
v -0.202177 1.923863 -0.674911
v -0.104354 1.923863 -0.635940
v 0.000000 1.923863 -0.623014
v 0.104354 1.923863 -0.635940
v 0.202177 1.923863 -0.674911
v 0.300000 1.923863 -0.723539
v 0.397823 1.923863 -0.784228
v 0.495646 1.923863 -0.873833
v -0.495646 2.236593 -1.037166
v -0.397823 2.236593 -0.947562
v -0.300000 2.236593 -0.886873
v -0.202177 2.236593 -0.838245
v -0.104354 2.236593 -0.799274
v 0.000000 2.236593 -0.786348
v 0.104354 2.236593 -0.799274
v 0.202177 2.236593 -0.838245
v 0.300000 2.236593 -0.886873
v 0.397823 2.236593 -0.947562
v 0.495646 2.236593 -1.037166
v -0.495646 2.549323 -1.186389
v -0.397823 2.549323 -1.096784
v -0.300000 2.549323 -1.036095
v -0.202177 2.549323 -0.987468
v -0.104354 2.549323 -0.948496
v 0.000000 2.549323 -0.935570
v 0.104354 2.549323 -0.948496
v 0.202177 2.549323 -0.987468
v 0.300000 2.549323 -1.036095
v 0.397823 2.549323 -1.096784
v 0.495646 2.549323 -1.186389
v -0.495646 2.862053 -1.363431
v -0.397823 2.862053 -1.273826
v -0.300000 2.862053 -1.213137
v -0.202177 2.862053 -1.164510
v -0.104354 2.862053 -1.125538
v 0.000000 2.862053 -1.112612
v 0.104354 2.862053 -1.125538
v 0.202177 2.862053 -1.164510
v 0.300000 2.862053 -1.213137
v 0.397823 2.862053 -1.273826
v 0.495646 2.862053 -1.363431
v -0.495646 3.174782 -1.589430
v -0.397823 3.174782 -1.499825
v -0.300000 3.174782 -1.439136
v -0.202177 3.174782 -1.390509
v -0.104354 3.174782 -1.351537
v 0.000000 3.174782 -1.338611
v 0.104354 3.174782 -1.351537
v 0.202177 3.174782 -1.390509
v 0.300000 3.174782 -1.439136
v 0.397823 3.174782 -1.499825
v 0.495646 3.174782 -1.589430
vt 0.287960 0.000000
vt 0.330368 0.000000
vt 0.372776 0.000000
vt 0.415184 0.000000
vt 0.457592 0.000000
vt 0.500000 0.000000
vt 0.542408 0.000000
vt 0.584816 0.000000
vt 0.627224 0.000000
vt 0.669632 0.000000
vt 0.712040 0.000000
vt 0.287960 0.100000
vt 0.330368 0.100000
vt 0.372776 0.100000
vt 0.415184 0.100000
vt 0.457592 0.100000
vt 0.500000 0.100000
vt 0.542408 0.100000
vt 0.584816 0.100000
vt 0.627224 0.100000
vt 0.669632 0.100000
vt 0.712040 0.100000
vt 0.287960 0.200000
vt 0.330368 0.200000
vt 0.372776 0.200000
vt 0.415184 0.200000
vt 0.457592 0.200000
vt 0.500000 0.200000
vt 0.542408 0.200000
vt 0.584816 0.200000
vt 0.627224 0.200000
vt 0.669632 0.200000
vt 0.712040 0.200000
vt 0.287960 0.300000
vt 0.330368 0.300000
vt 0.372776 0.300000
vt 0.415184 0.300000
vt 0.457592 0.300000
vt 0.500000 0.300000
vt 0.542408 0.300000
vt 0.584816 0.300000
vt 0.627224 0.300000
vt 0.669632 0.300000
vt 0.712040 0.300000
vt 0.287960 0.400000
vt 0.330368 0.400000
vt 0.372776 0.400000
vt 0.415184 0.400000
vt 0.457592 0.400000
vt 0.500000 0.400000
vt 0.542408 0.400000
vt 0.584816 0.400000
vt 0.627224 0.400000
vt 0.669632 0.400000
vt 0.712040 0.400000
vt 0.287960 0.500000
vt 0.330368 0.500000
vt 0.372776 0.500000
vt 0.415184 0.500000
vt 0.457592 0.500000
vt 0.500000 0.500000
vt 0.542408 0.500000
vt 0.584816 0.500000
vt 0.627224 0.500000
vt 0.669632 0.500000
vt 0.712040 0.500000
vt 0.287960 0.600000
vt 0.330368 0.600000
vt 0.372776 0.600000
vt 0.415184 0.600000
vt 0.457592 0.600000
vt 0.500000 0.600000
vt 0.542408 0.600000
vt 0.584816 0.600000
vt 0.627224 0.600000
vt 0.669632 0.600000
vt 0.712040 0.600000
vt 0.287960 0.700000
vt 0.330368 0.700000
vt 0.372776 0.700000
vt 0.415184 0.700000
vt 0.457592 0.700000
vt 0.500000 0.700000
vt 0.542408 0.700000
vt 0.584816 0.700000
vt 0.627224 0.700000
vt 0.669632 0.700000
vt 0.712040 0.700000
vt 0.287960 0.800000
vt 0.330368 0.800000
vt 0.372776 0.800000
vt 0.415184 0.800000
vt 0.457592 0.800000
vt 0.500000 0.800000
vt 0.542408 0.800000
vt 0.584816 0.800000
vt 0.627224 0.800000
vt 0.669632 0.800000
vt 0.712040 0.800000
vt 0.287960 0.900000
vt 0.330368 0.900000
vt 0.372776 0.900000
vt 0.415184 0.900000
vt 0.457592 0.900000
vt 0.500000 0.900000
vt 0.542408 0.900000
vt 0.584816 0.900000
vt 0.627224 0.900000
vt 0.669632 0.900000
vt 0.712040 0.900000
vt 0.287960 1.000000
vt 0.330368 1.000000
vt 0.372776 1.000000
vt 0.415184 1.000000
vt 0.457592 1.000000
vt 0.500000 1.000000
vt 0.542408 1.000000
vt 0.584816 1.000000
vt 0.627224 1.000000
vt 0.669632 1.000000
vt 0.712040 1.000000
vn -0.663963 0.183655 0.724861
vn -0.578144 0.200397 0.790942
vn -0.594129 0.213960 0.775392
vn -0.661168 0.204570 0.721809
vn -0.468125 0.217031 0.856596
vn -0.473751 0.234540 0.848853
vn -0.392005 0.225947 0.891785
vn -0.395927 0.244595 0.885107
vn -0.228909 0.239083 0.943631
vn -0.239607 0.257938 0.935979
vn 0.000000 0.245604 0.969370
vn -0.000000 0.265628 0.964076
vn 0.228909 0.239083 0.943631
vn 0.239607 0.257938 0.935979
vn 0.392005 0.225947 0.891785
vn 0.395927 0.244595 0.885108
vn 0.468125 0.217031 0.856596
vn 0.473751 0.234540 0.848853
vn 0.578144 0.200397 0.790942
vn 0.594129 0.213960 0.775391
vn 0.663964 0.183655 0.724861
vn 0.661168 0.204570 0.721809
vn -0.591044 0.239625 0.770225
vn -0.657928 0.226311 0.718272
vn -0.470522 0.262276 0.842508
vn -0.392959 0.273342 0.877991
vn -0.237817 0.288389 0.927510
vn 0.000000 0.296883 0.954914
vn 0.237817 0.288389 0.927510
vn 0.392959 0.273342 0.877991
vn 0.470522 0.262276 0.842508
vn 0.591044 0.239625 0.770225
vn 0.657928 0.226311 0.718272
vn -0.588557 0.255897 0.766888
vn -0.655437 0.241639 0.715551
vn -0.468128 0.279851 0.838176
vn -0.390787 0.291530 0.873096
vn -0.236374 0.307406 0.921753
vn -0.000000 0.316348 0.948643
vn 0.236374 0.307406 0.921753
vn 0.390787 0.291530 0.873096
vn 0.468128 0.279851 0.838176
vn 0.588557 0.255897 0.766888
vn 0.655437 0.241639 0.715551
vn -0.582482 0.287983 0.760119
vn -0.648861 0.277825 0.708373
vn -0.462621 0.314586 0.828865
vn -0.385839 0.327424 0.862509
vn -0.232896 0.344080 0.909598
vn 0.000000 0.353738 0.935345
vn 0.232896 0.344080 0.909598
vn 0.385839 0.327424 0.862509
vn 0.462621 0.314586 0.828865
vn 0.582482 0.287983 0.760119
vn 0.648861 0.277825 0.708373
vn -0.573454 0.334555 0.747812
vn -0.639491 0.321937 0.698146
vn -0.453977 0.364343 0.813117
vn -0.378029 0.378625 0.844830
vn -0.227796 0.397209 0.889007
vn 0.000000 0.407871 0.913039
vn 0.227796 0.397210 0.889007
vn 0.378029 0.378625 0.844830
vn 0.453976 0.364343 0.813117
vn 0.573454 0.334555 0.747812
vn 0.639491 0.321937 0.698146
vn -0.565761 0.369586 0.737103
vn -0.632223 0.351999 0.690211
vn -0.446645 0.401307 0.799663
vn -0.371431 0.416481 0.829809
vn -0.223504 0.436637 0.871432
vn 0.000000 0.447934 0.894067
vn 0.223504 0.436637 0.871432
vn 0.371431 0.416481 0.829809
vn 0.446645 0.401307 0.799663
vn 0.565761 0.369586 0.737103
vn 0.632223 0.351999 0.690211
vn -0.566549 0.368966 0.736808
vn -0.635108 0.340428 0.693359
vn -0.447150 0.400184 0.799944
vn -0.371851 0.415281 0.830222
vn -0.223880 0.436666 0.871321
vn -0.000000 0.448079 0.893994
vn 0.223879 0.436666 0.871321
vn 0.371851 0.415281 0.830222
vn 0.447150 0.400184 0.799943
vn 0.566549 0.368966 0.736808
vn 0.635108 0.340428 0.693359
vn -0.562589 0.381159 0.733629
vn -0.627722 0.369234 0.685296
vn -0.443800 0.413776 0.794878
vn -0.368899 0.429251 0.824413
vn -0.221794 0.449029 0.865552
vn -0.000000 0.460422 0.887700
vn 0.221794 0.449029 0.865552
vn 0.368899 0.429251 0.824413
vn 0.443800 0.413776 0.794878
vn 0.562589 0.381159 0.733629
vn 0.627723 0.369234 0.685296
vn -0.542407 0.453102 0.707456
vn -0.604461 0.446271 0.659901
vn -0.425152 0.489185 0.761540
vn -0.352289 0.505946 0.787344
vn -0.211019 0.526385 0.823644
vn 0.000000 0.538398 0.842691
vn 0.211019 0.526385 0.823644
vn 0.352289 0.505946 0.787344
vn 0.425152 0.489185 0.761540
vn 0.542407 0.453102 0.707456
vn 0.604461 0.446271 0.659901
vn -0.553738 0.487729 0.674903
vn -0.596095 0.470288 0.650768
vn -0.423249 0.530676 0.734332
vn -0.348994 0.548899 0.759548
vn -0.217842 0.571660 0.791043
vn 0.000000 0.585727 0.810508
vn 0.217842 0.571660 0.791043
vn 0.348994 0.548899 0.759548
vn 0.423249 0.530676 0.734332
vn 0.553738 0.487730 0.674903
vn 0.596096 0.470288 0.650768
s 1
usemtl initialShadingGroup
f 1/1/1 2/2/2 13/13/3 12/12/4
f 2/2/2 3/3/5 14/14/6 13/13/3
f 3/3/5 4/4/7 15/15/8 14/14/6
f 4/4/7 5/5/9 16/16/10 15/15/8
f 5/5/9 6/6/11 17/17/12 16/16/10
f 6/6/11 7/7/13 18/18/14 17/17/12
f 7/7/13 8/8/15 19/19/16 18/18/14
f 8/8/15 9/9/17 20/20/18 19/19/16
f 9/9/17 10/10/19 21/21/20 20/20/18
f 10/10/19 11/11/21 22/22/22 21/21/20
f 12/12/4 13/13/3 24/24/23 23/23/24
f 13/13/3 14/14/6 25/25/25 24/24/23
f 14/14/6 15/15/8 26/26/26 25/25/25
f 15/15/8 16/16/10 27/27/27 26/26/26
f 16/16/10 17/17/12 28/28/28 27/27/27
f 17/17/12 18/18/14 29/29/29 28/28/28
f 18/18/14 19/19/16 30/30/30 29/29/29
f 19/19/16 20/20/18 31/31/31 30/30/30
f 20/20/18 21/21/20 32/32/32 31/31/31
f 21/21/20 22/22/22 33/33/33 32/32/32
f 23/23/24 24/24/23 35/35/34 34/34/35
f 24/24/23 25/25/25 36/36/36 35/35/34
f 25/25/25 26/26/26 37/37/37 36/36/36
f 26/26/26 27/27/27 38/38/38 37/37/37
f 27/27/27 28/28/28 39/39/39 38/38/38
f 28/28/28 29/29/29 40/40/40 39/39/39
f 29/29/29 30/30/30 41/41/41 40/40/40
f 30/30/30 31/31/31 42/42/42 41/41/41
f 31/31/31 32/32/32 43/43/43 42/42/42
f 32/32/32 33/33/33 44/44/44 43/43/43
f 34/34/35 35/35/34 46/46/45 45/45/46
f 35/35/34 36/36/36 47/47/47 46/46/45
f 36/36/36 37/37/37 48/48/48 47/47/47
f 37/37/37 38/38/38 49/49/49 48/48/48
f 38/38/38 39/39/39 50/50/50 49/49/49
f 39/39/39 40/40/40 51/51/51 50/50/50
f 40/40/40 41/41/41 52/52/52 51/51/51
f 41/41/41 42/42/42 53/53/53 52/52/52
f 42/42/42 43/43/43 54/54/54 53/53/53
f 43/43/43 44/44/44 55/55/55 54/54/54
f 45/45/46 46/46/45 57/57/56 56/56/57
f 46/46/45 47/47/47 58/58/58 57/57/56
f 47/47/47 48/48/48 59/59/59 58/58/58
f 48/48/48 49/49/49 60/60/60 59/59/59
f 49/49/49 50/50/50 61/61/61 60/60/60
f 50/50/50 51/51/51 62/62/62 61/61/61
f 51/51/51 52/52/52 63/63/63 62/62/62
f 52/52/52 53/53/53 64/64/64 63/63/63
f 53/53/53 54/54/54 65/65/65 64/64/64
f 54/54/54 55/55/55 66/66/66 65/65/65
f 56/56/57 57/57/56 68/68/67 67/67/68
f 57/57/56 58/58/58 69/69/69 68/68/67
f 58/58/58 59/59/59 70/70/70 69/69/69
f 59/59/59 60/60/60 71/71/71 70/70/70
f 60/60/60 61/61/61 72/72/72 71/71/71
f 61/61/61 62/62/62 73/73/73 72/72/72
f 62/62/62 63/63/63 74/74/74 73/73/73
f 63/63/63 64/64/64 75/75/75 74/74/74
f 64/64/64 65/65/65 76/76/76 75/75/75
f 65/65/65 66/66/66 77/77/77 76/76/76
f 67/67/68 68/68/67 79/79/78 78/78/79
f 68/68/67 69/69/69 80/80/80 79/79/78
f 69/69/69 70/70/70 81/81/81 80/80/80
f 70/70/70 71/71/71 82/82/82 81/81/81
f 71/71/71 72/72/72 83/83/83 82/82/82
f 72/72/72 73/73/73 84/84/84 83/83/83
f 73/73/73 74/74/74 85/85/85 84/84/84
f 74/74/74 75/75/75 86/86/86 85/85/85
f 75/75/75 76/76/76 87/87/87 86/86/86
f 76/76/76 77/77/77 88/88/88 87/87/87
f 78/78/79 79/79/78 90/90/89 89/89/90
f 79/79/78 80/80/80 91/91/91 90/90/89
f 80/80/80 81/81/81 92/92/92 91/91/91
f 81/81/81 82/82/82 93/93/93 92/92/92
f 82/82/82 83/83/83 94/94/94 93/93/93
f 83/83/83 84/84/84 95/95/95 94/94/94
f 84/84/84 85/85/85 96/96/96 95/95/95
f 85/85/85 86/86/86 97/97/97 96/96/96
f 86/86/86 87/87/87 98/98/98 97/97/97
f 87/87/87 88/88/88 99/99/99 98/98/98
f 89/89/90 90/90/89 101/101/100 100/100/101
f 90/90/89 91/91/91 102/102/102 101/101/100
f 91/91/91 92/92/92 103/103/103 102/102/102
f 92/92/92 93/93/93 104/104/104 103/103/103
f 93/93/93 94/94/94 105/105/105 104/104/104
f 94/94/94 95/95/95 106/106/106 105/105/105
f 95/95/95 96/96/96 107/107/107 106/106/106
f 96/96/96 97/97/97 108/108/108 107/107/107
f 97/97/97 98/98/98 109/109/109 108/108/108
f 98/98/98 99/99/99 110/110/110 109/109/109
f 100/100/101 101/101/100 112/112/111 111/111/112
f 101/101/100 102/102/102 113/113/113 112/112/111
f 102/102/102 103/103/103 114/114/114 113/113/113
f 103/103/103 104/104/104 115/115/115 114/114/114
f 104/104/104 105/105/105 116/116/116 115/115/115
f 105/105/105 106/106/106 117/117/117 116/116/116
f 106/106/106 107/107/107 118/118/118 117/117/117
f 107/107/107 108/108/108 119/119/119 118/118/118
f 108/108/108 109/109/109 120/120/120 119/119/119
f 109/109/109 110/110/110 121/121/121 120/120/120
