# This file uses centimeters as units for non-parametric coordinates.

mtllib pillar_placeholder.mtl
g default
v 0.707107 0.003717 -0.707107
v 0.000000 0.003717 -1.000000
v -0.707107 0.003717 -0.707107
v -1.000000 0.003717 0.000000
v -0.707107 0.003717 0.707107
v 0.000000 0.003717 1.000000
v 0.707107 0.003717 0.707107
v 1.000000 0.003717 0.000000
v 0.497168 1.503716 -0.497168
v 0.000000 1.503716 -0.703102
v -0.497168 1.503716 -0.497168
v -0.703102 1.503716 0.000000
v -0.497168 1.503716 0.497168
v 0.000000 1.503716 0.703102
v 0.497168 1.503716 0.497168
v 0.703102 1.503716 0.000000
v 0.000000 0.003717 0.000000
v 0.590182 1.582972 0.000000
v 0.417322 1.582972 0.417322
v 0.000000 1.582972 0.590182
v -0.417322 1.582972 0.417322
v -0.590182 1.582972 0.000000
v -0.417322 1.582972 -0.417322
v 0.000000 1.582972 -0.590182
v 0.417322 1.582972 -0.417322
v 0.590182 11.620082 0.000000
v 0.417322 11.620082 0.417322
v 0.000000 11.620082 0.000000
v 0.000000 11.620082 0.590182
v -0.417322 11.620082 0.417322
v -0.590182 11.620082 0.000000
v -0.417322 11.620082 -0.417322
v 0.000000 11.620082 -0.590182
v 0.417322 11.620082 -0.417322
vt 0.610485 0.045765
vt 0.500000 0.000000
vt 0.389515 0.045765
vt 0.343750 0.156250
vt 0.389515 0.266735
vt 0.500000 0.312500
vt 0.610485 0.266735
vt 0.656250 0.156250
vt 0.375000 0.312500
vt 0.406250 0.312500
vt 0.437500 0.312500
vt 0.468750 0.312500
vt 0.500000 0.312500
vt 0.531250 0.312500
vt 0.562500 0.312500
vt 0.593750 0.312500
vt 0.625000 0.312500
vt 0.375000 0.688440
vt 0.406250 0.688440
vt 0.437500 0.688440
vt 0.468750 0.688440
vt 0.500000 0.688440
vt 0.531250 0.688440
vt 0.562500 0.688440
vt 0.593750 0.688440
vt 0.625000 0.688440
vt 0.610485 0.733265
vt 0.500000 0.687500
vt 0.389515 0.733265
vt 0.343750 0.843750
vt 0.389515 0.954235
vt 0.500000 1.000000
vt 0.610485 0.954235
vt 0.656250 0.843750
vt 0.500000 0.150000
vt 0.500000 0.837500
vt 0.578125 0.840625
vt 0.555243 0.785382
vt 0.500000 0.762500
vt 0.444757 0.785382
vt 0.421875 0.840625
vt 0.444757 0.895868
vt 0.500000 0.918750
vt 0.555243 0.895868
vt 0.555243 0.785382
vt 0.578125 0.840625
vt 0.500000 0.762500
vt 0.444757 0.785382
vt 0.421875 0.840625
vt 0.444757 0.895868
vt 0.500000 0.918750
vt 0.555243 0.895868
vn 0.376441 0.179883 -0.908809
vn 0.376441 0.179883 -0.908809
vn 0.376441 0.179883 -0.908809
vn 0.376441 0.179883 -0.908809
vn -0.376441 0.179883 -0.908809
vn -0.376441 0.179883 -0.908809
vn -0.376441 0.179883 -0.908809
vn -0.376441 0.179883 -0.908809
vn -0.908809 0.179883 -0.376441
vn -0.908809 0.179883 -0.376441
vn -0.908809 0.179883 -0.376441
vn -0.908809 0.179883 -0.376441
vn -0.908809 0.179883 0.376441
vn -0.908809 0.179883 0.376441
vn -0.908809 0.179883 0.376441
vn -0.908809 0.179883 0.376441
vn -0.376441 0.179883 0.908809
vn -0.376441 0.179883 0.908809
vn -0.376441 0.179883 0.908809
vn -0.376441 0.179883 0.908809
vn 0.376441 0.179883 0.908809
vn 0.376441 0.179883 0.908809
vn 0.376441 0.179883 0.908809
vn 0.376441 0.179883 0.908809
vn 0.908809 0.179883 0.376441
vn 0.908809 0.179883 0.376441
vn 0.908809 0.179883 0.376441
vn 0.908809 0.179883 0.376441
vn 0.908809 0.179883 -0.376441
vn 0.908809 0.179883 -0.376441
vn 0.908809 0.179883 -0.376441
vn 0.908809 0.179883 -0.376441
vn 0.000000 -1.000000 0.000000
vn 0.000000 -1.000000 0.000000
vn 0.000000 -1.000000 0.000000
vn 0.000000 -1.000000 0.000000
vn 0.000000 -1.000000 0.000000
vn 0.000000 -1.000000 -0.000000
vn 0.000000 -1.000000 0.000000
vn 0.000000 -1.000000 0.000000
vn 0.000000 -1.000000 0.000000
vn 0.406232 0.818505 -0.406232
vn 0.000000 0.818506 -0.574499
vn 0.000000 0.818506 -0.574499
vn 0.406232 0.818505 -0.406232
vn -0.406232 0.818506 -0.406232
vn -0.406232 0.818506 -0.406232
vn -0.574498 0.818506 0.000000
vn -0.574498 0.818506 0.000000
vn -0.406232 0.818506 0.406232
vn -0.406232 0.818506 0.406232
vn -0.000000 0.818506 0.574498
vn -0.000000 0.818506 0.574499
vn 0.406232 0.818506 0.406232
vn 0.406232 0.818506 0.406232
vn 0.574499 0.818505 -0.000000
vn 0.574499 0.818505 -0.000000
vn 0.000000 1.000000 0.000000
vn 0.000000 1.000000 0.000000
vn 0.000000 1.000000 0.000000
vn 0.000000 1.000000 0.000000
vn 0.000000 1.000000 0.000000
vn 0.000000 1.000000 0.000000
vn 0.000000 1.000000 0.000000
vn 0.000000 1.000000 0.000000
vn 0.000000 1.000000 0.000000
vn 0.923879 0.000000 0.382684
vn 0.923879 0.000000 0.382684
vn 0.923879 0.000000 0.382684
vn 0.923879 0.000000 0.382684
vn 0.382684 0.000000 0.923879
vn 0.382684 0.000000 0.923879
vn 0.382684 0.000000 0.923879
vn 0.382684 0.000000 0.923879
vn -0.382684 0.000000 0.923879
vn -0.382684 0.000000 0.923879
vn -0.382684 0.000000 0.923879
vn -0.382684 0.000000 0.923879
vn -0.923879 0.000000 0.382684
vn -0.923879 0.000000 0.382684
vn -0.923879 0.000000 0.382684
vn -0.923879 0.000000 0.382684
vn -0.923879 0.000000 -0.382684
vn -0.923879 0.000000 -0.382684
vn -0.923879 0.000000 -0.382684
vn -0.923879 0.000000 -0.382684
vn -0.382684 0.000000 -0.923879
vn -0.382684 0.000000 -0.923879
vn -0.382684 0.000000 -0.923879
vn -0.382684 0.000000 -0.923879
vn 0.382684 0.000000 -0.923879
vn 0.382684 0.000000 -0.923879
vn 0.382684 0.000000 -0.923879
vn 0.382684 0.000000 -0.923879
vn 0.923879 0.000000 -0.382684
vn 0.923879 0.000000 -0.382684
vn 0.923879 0.000000 -0.382684
vn 0.923879 0.000000 -0.382684
s off
g pCylinder1
usemtl initialShadingGroup
f 1/9/1 2/10/2 10/19/3 9/18/4
f 2/10/5 3/11/6 11/20/7 10/19/8
f 3/11/9 4/12/10 12/21/11 11/20/12
f 4/12/13 5/13/14 13/22/15 12/21/16
f 5/13/17 6/14/18 14/23/19 13/22/20
f 6/14/21 7/15/22 15/24/23 14/23/24
f 7/15/25 8/16/26 16/25/27 15/24/28
f 8/16/29 1/17/30 9/26/31 16/25/32
s 1
f 2/2/33 1/1/34 17/35/35
f 3/3/36 2/2/33 17/35/35
f 4/4/37 3/3/36 17/35/35
f 5/5/38 4/4/37 17/35/35
f 6/6/39 5/5/38 17/35/35
f 7/7/40 6/6/39 17/35/35
f 8/8/41 7/7/40 17/35/35
f 1/1/34 8/8/41 17/35/35
s 2
f 9/33/42 10/32/43 24/43/44 25/44/45
f 10/32/43 11/31/46 23/42/47 24/43/44
f 11/31/46 12/30/48 22/41/49 23/42/47
f 12/30/48 13/29/50 21/40/51 22/41/49
f 13/29/50 14/28/52 20/39/53 21/40/51
f 14/28/52 15/27/54 19/38/55 20/39/53
f 15/27/54 16/34/56 18/37/57 19/38/55
f 16/34/56 9/33/42 25/44/45 18/37/57
s 3
f 27/45/58 26/46/59 28/36/60
f 29/47/61 27/45/58 28/36/60
f 30/48/62 29/47/61 28/36/60
f 31/49/63 30/48/62 28/36/60
f 32/50/64 31/49/63 28/36/60
f 33/51/65 32/50/64 28/36/60
f 34/52/66 33/51/65 28/36/60
f 26/46/59 34/52/66 28/36/60
s off
f 19/38/67 18/37/68 26/46/69 27/45/70
f 20/39/71 19/38/72 27/45/73 29/47/74
f 21/40/75 20/39/76 29/47/77 30/48/78
f 22/41/79 21/40/80 30/48/81 31/49/82
f 23/42/83 22/41/84 31/49/85 32/50/86
f 24/43/87 23/42/88 32/50/89 33/51/90
f 25/44/91 24/43/92 33/51/93 34/52/94
f 18/37/95 25/44/96 34/52/97 26/46/98
