# This file uses centimeters as units for non-parametric coordinates.

mtllib stick-2.mtl
v 0.011011 0.658585 -0.008000
v 0.004206 0.658585 -0.012944
v -0.004206 0.658585 -0.012944
v -0.011011 0.658585 -0.008000
v -0.013611 0.658585 0.000000
v -0.011011 0.658585 0.008000
v -0.004206 0.658585 0.012944
v 0.004206 0.658585 0.012944
v 0.011011 0.658585 0.008000
v 0.013611 0.658585 0.000000
v 0.007906 1.080886 -0.005744
v 0.003020 1.080886 -0.009294
v -0.010843 1.080886 -0.009294
v -0.015729 1.080886 -0.005744
v -0.017596 1.080886 0.000000
v -0.015729 1.080886 0.005744
v -0.010843 1.080886 0.009294
v -0.004804 1.080886 0.009294
v 0.007906 1.080886 0.005744
v 0.009772 1.080886 -0.000000
v 0.000000 0.658585 0.000000
v 0.007297 1.105946 0.000000
v -0.015663 1.260586 -0.005000
v -0.018912 1.260586 -0.005000
v -0.011972 1.260586 -0.000000
v -0.021541 1.260586 -0.003090
v -0.022545 1.260586 -0.000000
v -0.021541 1.260586 0.003090
v -0.018912 1.260586 0.005000
v -0.015663 1.260586 0.005000
v 0.022902 0.841640 -0.007436
v 0.016577 0.841640 -0.012032
v 0.008758 0.841640 -0.012032
v 0.002433 0.841640 -0.007436
v 0.000016 0.841640 0.000000
v 0.002433 0.841640 0.007436
v 0.008758 0.841640 0.012032
v 0.016577 0.841640 0.012032
v 0.022902 0.841640 0.007436
v 0.025318 0.841640 -0.000000
v 0.022126 0.851660 -0.006872
v 0.016280 0.851660 -0.011119
v 0.009054 0.851660 -0.011119
v 0.003209 0.851660 -0.006872
v 0.000976 0.851660 0.000000
v 0.003209 0.851660 0.006872
v 0.009054 0.851660 0.011119
v 0.016280 0.851660 0.011119
v 0.022126 0.851660 0.006872
v 0.024358 0.851660 -0.000000
v 0.002028 1.054171 -0.006308
v -0.003338 1.054171 -0.010206
v -0.009970 1.054171 -0.010206
v -0.015336 1.054171 -0.006308
v -0.017385 1.054171 0.000000
v -0.015336 1.054171 0.006308
v -0.009970 1.054171 0.010206
v -0.003338 1.054171 0.010206
v 0.002028 1.054171 0.006308
v 0.004077 1.054171 -0.000000
v 0.001978 1.062544 -0.006271
v 0.004015 1.062544 -0.000000
v 0.001978 1.062544 0.006271
v -0.003357 1.062544 0.010147
v -0.009951 1.062544 0.010147
v -0.015285 1.062544 0.006271
v -0.017323 1.062544 0.000000
v -0.015285 1.062544 -0.006271
v -0.009951 1.062544 -0.010147
v -0.003357 1.062544 -0.010147
v 0.030334 1.138551 -0.002093
v 0.028553 1.138551 -0.003387
v 0.026206 1.139490 -0.000000
v 0.028553 1.138551 0.003387
v 0.030334 1.138551 0.002093
v 0.031014 1.138551 -0.000000
v -0.005571 1.094668 -0.007082
v -0.013968 1.094668 -0.007082
v -0.017691 1.094668 -0.004377
v -0.019113 1.094668 0.000000
v -0.017691 1.094668 0.004377
v -0.013968 1.094668 0.007082
v -0.009365 1.094668 0.007082
v -0.001595 1.106821 -0.000000
v 0.005764 0.746087 -0.007730
v -0.000812 0.746087 -0.012508
v -0.008940 0.746087 -0.012508
v -0.015516 0.746087 -0.007730
v -0.018028 0.746087 0.000000
v -0.015516 0.746087 0.007730
v -0.008940 0.746087 0.012508
v -0.000812 0.746087 0.012508
v 0.005764 0.746087 0.007730
v 0.008276 0.746087 -0.000000
v 0.006339 0.754934 -0.007703
v -0.000214 0.754934 -0.012464
v -0.008313 0.754934 -0.012464
v -0.014866 0.754934 -0.007703
v -0.017369 0.754934 0.000000
v -0.014866 0.754934 0.007703
v -0.008313 0.754934 0.012464
v -0.000214 0.754934 0.012464
v 0.006339 0.754934 0.007703
v 0.008842 0.754934 -0.000000
v 0.010621 0.665097 -0.007980
v 0.003832 0.665097 -0.012912
v -0.004558 0.665097 -0.012912
v -0.011346 0.665097 -0.007980
v -0.013939 0.665097 0.000000
v -0.011346 0.665097 0.007980
v -0.004558 0.665097 0.012912
v 0.003832 0.665097 0.012912
v 0.010621 0.665097 0.007980
v 0.013213 0.665097 -0.000000
vt 0.626409 0.064409
vt 0.548284 0.007647
vt 0.451716 0.007647
vt 0.373591 0.064409
vt 0.343750 0.156250
vt 0.373591 0.248091
vt 0.451716 0.304853
vt 0.548284 0.304853
vt 0.626409 0.248091
vt 0.656250 0.156250
vt 0.375000 0.312500
vt 0.400000 0.312500
vt 0.425000 0.312500
vt 0.450000 0.312500
vt 0.475000 0.312500
vt 0.500000 0.312500
vt 0.525000 0.312500
vt 0.550000 0.312500
vt 0.575000 0.312500
vt 0.600000 0.312500
vt 0.625000 0.312500
vt 0.375000 0.688440
vt 0.400000 0.688440
vt 0.425000 0.688440
vt 0.450000 0.688440
vt 0.475000 0.688440
vt 0.500000 0.688440
vt 0.525000 0.688440
vt 0.550000 0.688440
vt 0.575000 0.688440
vt 0.600000 0.688440
vt 0.625000 0.688440
vt 0.626409 0.751909
vt 0.548284 0.695147
vt 0.451716 0.695147
vt 0.373591 0.751909
vt 0.343750 0.843750
vt 0.373591 0.935591
vt 0.451716 0.992353
vt 0.548284 0.992353
vt 0.626409 0.935591
vt 0.656250 0.843750
vt 0.500000 0.150000
vt 0.500000 0.837500
vt 0.548284 0.992353
vt 0.451716 0.992353
vt 0.500000 0.837500
vt 0.373591 0.935591
vt 0.343750 0.843750
vt 0.373591 0.751909
vt 0.451716 0.695147
vt 0.548284 0.695147
vt 0.625000 0.406485
vt 0.375000 0.406485
vt 0.400000 0.406485
vt 0.425000 0.406485
vt 0.450000 0.406485
vt 0.475000 0.406485
vt 0.500000 0.406485
vt 0.525000 0.406485
vt 0.550000 0.406485
vt 0.575000 0.406485
vt 0.600000 0.406485
vt 0.625000 0.500470
vt 0.375000 0.500470
vt 0.400000 0.500470
vt 0.425000 0.500470
vt 0.450000 0.500470
vt 0.475000 0.500470
vt 0.500000 0.500470
vt 0.525000 0.500470
vt 0.550000 0.500470
vt 0.575000 0.500470
vt 0.600000 0.500470
vt 0.625000 0.594455
vt 0.375000 0.594455
vt 0.400000 0.594455
vt 0.425000 0.594455
vt 0.450000 0.594455
vt 0.475000 0.594455
vt 0.500000 0.594455
vt 0.525000 0.594455
vt 0.550000 0.594455
vt 0.575000 0.594455
vt 0.600000 0.594455
vt 0.625000 0.600564
vt 0.375000 0.600564
vt 0.600000 0.600564
vt 0.575000 0.600564
vt 0.550000 0.600564
vt 0.525000 0.600564
vt 0.500000 0.600564
vt 0.475000 0.600564
vt 0.450000 0.600564
vt 0.425000 0.600564
vt 0.400000 0.600564
vt 0.626409 0.935591
vt 0.548284 0.992353
vt 0.500000 0.837500
vt 0.548284 0.695147
vt 0.626409 0.751909
vt 0.656250 0.843750
vt 0.548284 0.992353
vt 0.451716 0.992353
vt 0.373591 0.935591
vt 0.343750 0.843750
vt 0.373591 0.751909
vt 0.451716 0.695147
vt 0.548284 0.695147
vt 0.500000 0.837500
vt 0.625000 0.357426
vt 0.375000 0.357426
vt 0.400000 0.357426
vt 0.425000 0.357426
vt 0.450000 0.357426
vt 0.475000 0.357426
vt 0.500000 0.357426
vt 0.525000 0.357426
vt 0.550000 0.357426
vt 0.575000 0.357426
vt 0.600000 0.357426
vt 0.625000 0.361968
vt 0.375000 0.361968
vt 0.400000 0.361968
vt 0.425000 0.361968
vt 0.450000 0.361968
vt 0.475000 0.361968
vt 0.500000 0.361968
vt 0.525000 0.361968
vt 0.550000 0.361968
vt 0.575000 0.361968
vt 0.600000 0.361968
vt 0.625000 0.315844
vt 0.375000 0.315844
vt 0.400000 0.315844
vt 0.425000 0.315844
vt 0.450000 0.315844
vt 0.475000 0.315844
vt 0.500000 0.315844
vt 0.525000 0.315844
vt 0.550000 0.315844
vt 0.575000 0.315844
vt 0.600000 0.315844
vn 0.586755 0.059183 -0.807599
vn 0.586843 0.056606 -0.807720
vn 0.586679 -0.061328 -0.807494
vn 0.583134 -0.125548 -0.802616
vn 0.000000 0.004562 -0.999990
vn 0.000000 0.004843 -0.999988
vn -0.000000 0.039540 -0.999218
vn -0.000000 0.040995 -0.999159
vn -0.587047 -0.050115 -0.808000
vn -0.587137 -0.046959 -0.808124
vn -0.587764 0.008544 -0.808987
vn -0.587768 0.007888 -0.808991
vn -0.947769 -0.083080 -0.307948
vn -0.947869 -0.081808 -0.307981
vn -0.951031 -0.007416 -0.309008
vn -0.951049 -0.004149 -0.309014
vn -0.947869 -0.081807 0.307981
vn -0.947769 -0.083080 0.307949
vn -0.951048 -0.004149 0.309015
vn -0.951030 -0.007416 0.309009
vn -0.587137 -0.046959 0.808124
vn -0.587047 -0.050115 0.808000
vn -0.587767 0.007888 0.808992
vn -0.587764 0.008544 0.808987
vn 0.000000 0.004843 0.999988
vn 0.000000 0.004562 0.999990
vn 0.000000 0.025137 0.999684
vn 0.000000 0.036349 0.999339
vn 0.586843 0.056606 0.807720
vn 0.586755 0.059183 0.807599
vn 0.415891 -0.008653 0.909373
vn 0.425134 -0.007853 0.905096
vn 0.947110 0.091010 0.307735
vn 0.947013 0.092114 0.307703
vn 0.930922 -0.204681 0.302473
vn 0.936583 -0.173800 0.304313
vn 0.947013 0.092114 -0.307703
vn 0.947110 0.091010 -0.307734
vn 0.936583 -0.173800 -0.304313
vn 0.930922 -0.204681 -0.302473
vn 0.000000 -1.000000 -0.000001
vn 0.000000 -1.000000 0.000000
vn 0.000000 -1.000000 0.000000
vn 0.000000 -1.000000 0.000000
vn 0.000000 -1.000000 0.000001
vn 0.000000 -1.000000 -0.000000
vn 0.000000 -1.000000 -0.000001
vn 0.000000 -1.000000 0.000000
vn 0.000000 -1.000000 0.000001
vn 0.000000 -1.000000 0.000001
vn 0.000000 -1.000000 0.000001
vn 0.000000 1.000000 0.000000
vn 0.000000 1.000000 0.000000
vn 0.000000 1.000000 0.000000
vn 0.000000 1.000000 0.000000
vn 0.000000 1.000000 0.000000
vn 0.000000 1.000000 0.000000
vn 0.000000 1.000000 0.000000
vn 0.000000 1.000000 0.000000
vn -0.000000 0.076564 -0.997065
vn -0.000000 0.018986 -0.999820
vn -0.000000 0.012549 -0.999921
vn -0.000000 0.012549 -0.999921
vn 0.704064 0.137830 -0.696633
vn 0.767604 0.094435 -0.633929
vn 0.816609 0.056029 -0.574465
vn 0.816609 0.056029 -0.574465
vn -0.587773 -0.006296 -0.809001
vn -0.587769 -0.007316 -0.808996
vn -0.587769 -0.007363 -0.808995
vn -0.587769 -0.007363 -0.808995
vn -0.950472 -0.035072 -0.308827
vn -0.950729 -0.026232 -0.308910
vn -0.950873 -0.019666 -0.308957
vn -0.950873 -0.019666 -0.308957
vn -0.950729 -0.026232 0.308910
vn -0.950471 -0.035072 0.308827
vn -0.950873 -0.019666 0.308957
vn -0.950873 -0.019666 0.308957
vn -0.587769 -0.007316 0.808996
vn -0.587773 -0.006296 0.809001
vn -0.587769 -0.007363 0.808995
vn -0.587769 -0.007363 0.808995
vn 0.000000 0.017172 0.999853
vn 0.000000 0.051999 0.998647
vn 0.000000 0.012550 0.999921
vn 0.000000 0.012550 0.999921
vn 0.668072 0.066612 0.741109
vn 0.576410 0.125186 0.807514
vn 0.703828 0.041331 0.709167
vn 0.703828 0.041331 0.709167
vn 0.584419 -0.106863 -0.804384
vn 0.585481 -0.088453 -0.805846
vn 0.584915 -0.098702 -0.805067
vn 0.586191 -0.073595 -0.806823
vn -0.000000 0.004986 -0.999988
vn -0.000000 0.004986 -0.999988
vn -0.000000 0.008893 -0.999960
vn -0.000000 0.040208 -0.999191
vn -0.583788 0.116434 -0.803514
vn -0.584867 0.099522 -0.805000
vn -0.583720 0.117408 -0.803421
vn -0.583946 0.114110 -0.803732
vn -0.935620 0.179441 -0.304001
vn -0.936843 0.172243 -0.304398
vn -0.935389 0.180766 -0.303926
vn -0.935872 0.177980 -0.304083
vn -0.936843 0.172243 0.304399
vn -0.935620 0.179441 0.304001
vn -0.935872 0.177980 0.304083
vn -0.935389 0.180766 0.303926
vn -0.584867 0.099522 0.805001
vn -0.583787 0.116434 0.803514
vn -0.583946 0.114110 0.803733
vn -0.583720 0.117408 0.803422
vn 0.000000 0.004986 0.999988
vn 0.000000 0.004986 0.999988
vn 0.000000 0.040208 0.999191
vn 0.000000 0.008893 0.999960
vn 0.585481 -0.088453 0.805846
vn 0.584420 -0.106863 0.804384
vn 0.586192 -0.073595 0.806823
vn 0.584915 -0.098702 0.805066
vn 0.938446 -0.162306 0.304920
vn 0.937192 -0.170128 0.304512
vn 0.940028 -0.151845 0.305434
vn 0.938813 -0.159943 0.305039
vn 0.937192 -0.170128 -0.304512
vn 0.938446 -0.162306 -0.304919
vn 0.938813 -0.159943 -0.305039
vn 0.940028 -0.151845 -0.305434
vn 0.586665 0.061698 -0.807476
vn 0.586577 0.064073 -0.807355
vn -0.000000 0.007551 -0.999971
vn -0.000000 0.022249 -0.999752
vn -0.587166 -0.045896 -0.808164
vn -0.587456 -0.033491 -0.808563
vn -0.948237 -0.076953 -0.308100
vn -0.948522 -0.072958 -0.308193
vn -0.948522 -0.072958 0.308194
vn -0.948236 -0.076953 0.308101
vn -0.587455 -0.033491 0.808563
vn -0.587166 -0.045896 0.808165
vn 0.000000 0.022249 0.999752
vn 0.000000 0.007551 0.999971
vn 0.586578 0.064073 0.807355
vn 0.586666 0.061698 0.807476
vn 0.946799 0.094520 0.307634
vn 0.946791 0.094605 0.307631
vn 0.946791 0.094605 -0.307631
vn 0.946799 0.094520 -0.307633
vn 0.911326 -0.286019 -0.296106
vn 0.911326 -0.286019 -0.296106
vn 0.911326 -0.286019 0.296106
vn 0.911326 -0.286019 0.296106
vn 0.380530 -0.011675 0.924695
vn 0.380530 -0.011675 0.924695
vn 0.000000 0.046476 0.998919
vn 0.000000 0.046476 0.998919
vn -0.587761 0.009037 0.808984
vn -0.587761 0.009037 0.808984
vn -0.950962 -0.014131 0.308986
vn -0.950962 -0.014131 0.308986
vn -0.950962 -0.014131 -0.308986
vn -0.950962 -0.014131 -0.308986
vn -0.587762 0.009037 -0.808984
vn -0.587762 0.009037 -0.808984
vn -0.000000 0.046476 -0.998919
vn -0.000000 0.046476 -0.998919
vn 0.579784 -0.164435 -0.798005
vn 0.579784 -0.164435 -0.798005
vn 0.578750 -0.174667 -0.796580
vn 0.578750 -0.174667 -0.796580
vn 0.578750 -0.174667 -0.796580
vn 0.578750 -0.174667 -0.796580
vn -0.665695 0.366462 -0.650042
vn -0.665695 0.366462 -0.650042
vn -0.665695 0.366462 -0.650042
vn -0.665695 0.366462 -0.650042
vn -0.794842 0.479552 0.371826
vn -0.794842 0.479553 0.371826
vn -0.794842 0.479553 0.371826
vn -0.794842 0.479553 0.371826
vn 0.316130 -0.074534 0.945784
vn 0.316130 -0.074534 0.945784
vn 0.316130 -0.074534 0.945784
vn 0.316130 -0.074534 0.945784
vn 0.897569 -0.330636 0.291634
vn 0.897569 -0.330636 0.291634
vn 0.897569 -0.330636 0.291634
vn 0.897569 -0.330636 0.291634
vn 0.897569 -0.330636 -0.291634
vn 0.897569 -0.330636 -0.291634
vn 0.897569 -0.330636 -0.291634
vn 0.897569 -0.330636 -0.291634
vn 0.163875 0.986481 0.000000
vn 0.163875 0.986481 0.000000
vn 0.163875 0.986481 0.000000
vn 0.163875 0.986481 0.000000
vn 0.163875 0.986481 0.000000
vn 0.163875 0.986481 0.000000
vn -0.000000 0.158419 -0.987372
vn -0.000000 0.158419 -0.987372
vn -0.587781 -0.003444 -0.809013
vn -0.587781 -0.003444 -0.809013
vn -0.945883 -0.104163 -0.307336
vn -0.945883 -0.104163 -0.307336
vn -0.945883 -0.104163 0.307336
vn -0.945883 -0.104163 0.307336
vn -0.587782 -0.003443 0.809012
vn -0.587782 -0.003443 0.809012
vn 0.000000 0.158419 0.987372
vn 0.000000 0.158419 0.987372
vn 0.185662 0.311029 0.932089
vn 0.185662 0.311029 0.932089
vn 0.186818 0.360686 -0.913786
vn 0.186818 0.360686 -0.913786
vn 0.587367 0.037711 -0.808441
vn 0.587367 0.037711 -0.808442
vn 0.587490 0.031719 -0.808610
vn 0.587514 0.030359 -0.808644
vn -0.000000 0.004986 -0.999988
vn -0.000000 0.004986 -0.999988
vn -0.000000 0.004986 -0.999988
vn -0.000000 0.004986 -0.999988
vn -0.587559 -0.027755 -0.808705
vn -0.587559 -0.027755 -0.808705
vn -0.587657 -0.020864 -0.808841
vn -0.587659 -0.020745 -0.808843
vn -0.949962 -0.047953 -0.308661
vn -0.949962 -0.047953 -0.308661
vn -0.950415 -0.036709 -0.308809
vn -0.950413 -0.036778 -0.308808
vn -0.949962 -0.047953 0.308662
vn -0.949962 -0.047953 0.308662
vn -0.950413 -0.036778 0.308808
vn -0.950415 -0.036709 0.308809
vn -0.587559 -0.027755 0.808705
vn -0.587559 -0.027755 0.808705
vn -0.587659 -0.020745 0.808843
vn -0.587657 -0.020864 0.808841
vn 0.000000 0.004986 0.999988
vn 0.000000 0.004986 0.999988
vn 0.000000 0.004986 0.999988
vn 0.000000 0.004986 0.999988
vn 0.587367 0.037711 0.808441
vn 0.587367 0.037711 0.808442
vn 0.587514 0.030359 0.808644
vn 0.587490 0.031719 0.808610
vn 0.949462 0.057883 0.308499
vn 0.949462 0.057883 0.308499
vn 0.950032 0.046395 0.308684
vn 0.950001 0.047098 0.308674
vn 0.949462 0.057883 -0.308499
vn 0.949462 0.057883 -0.308499
vn 0.950001 0.047098 -0.308674
vn 0.950032 0.046395 -0.308684
vn 0.587367 0.037711 -0.808441
vn 0.587367 0.037711 -0.808441
vn -0.000000 0.004986 -0.999988
vn -0.000000 0.004986 -0.999988
vn -0.587559 -0.027756 -0.808705
vn -0.587559 -0.027756 -0.808705
vn -0.949962 -0.047953 -0.308662
vn -0.949962 -0.047953 -0.308662
vn -0.949962 -0.047953 0.308661
vn -0.949962 -0.047953 0.308661
vn -0.587559 -0.027755 0.808705
vn -0.587559 -0.027755 0.808705
vn 0.000000 0.004986 0.999988
vn 0.000000 0.004986 0.999988
vn 0.587367 0.037711 0.808442
vn 0.587367 0.037711 0.808441
vn 0.949462 0.057883 0.308499
vn 0.949462 0.057883 0.308499
vn 0.949462 0.057883 -0.308499
vn 0.949462 0.057883 -0.308499
s 1
usemtl initialShadingGroup
f 51/76/1 52/77/2 70/96/3 61/87/4
s 2
f 52/77/5 53/78/6 69/95/7 70/96/8
s 3
f 53/78/9 54/79/10 68/94/11 69/95/12
s 4
f 54/79/13 55/80/14 67/93/15 68/94/16
s 5
f 55/80/17 56/81/18 66/92/19 67/93/20
s 6
f 56/81/21 57/82/22 65/91/23 66/92/24
s 7
f 57/82/25 58/83/26 64/90/27 65/91/28
s 8
f 58/83/29 59/84/30 63/89/31 64/90/32
s 9
f 59/84/33 60/85/34 62/88/35 63/89/36
s 10
f 60/85/37 51/75/38 61/86/39 62/88/40
s 11
f 2/2/41 1/1/42 21/43/43
f 3/3/44 2/2/41 21/43/43
f 4/4/45 3/3/44 21/43/43
f 5/5/46 4/4/45 21/43/43
f 6/6/47 5/5/46 21/43/43
f 7/7/48 6/6/47 21/43/43
f 8/8/49 7/7/48 21/43/43
f 9/9/50 8/8/49 21/43/43
f 10/10/51 9/9/50 21/43/43
f 1/1/42 10/10/51 21/43/43
s 12
f 23/45/52 24/46/53 25/47/54
f 24/46/53 26/48/55 25/47/54
f 26/48/55 27/49/56 25/47/54
f 27/49/56 28/50/57 25/47/54
f 28/50/57 29/51/58 25/47/54
f 29/51/58 30/52/59 25/47/54
s 13
f 77/103/60 78/104/61 24/46/62 23/45/63
s 14
f 84/110/64 77/103/65 23/45/66 25/47/67
s 15
f 78/104/68 79/105/69 26/48/70 24/46/71
s 16
f 79/105/72 80/106/73 27/49/74 26/48/75
s 17
f 80/106/76 81/107/77 28/50/78 27/49/79
s 18
f 81/107/80 82/108/81 29/51/82 28/50/83
s 19
f 82/108/84 83/109/85 30/52/86 29/51/87
s 20
f 83/109/88 84/110/89 25/47/90 30/52/91
s 1
f 95/123/92 96/124/93 32/55/94 31/54/95
s 2
f 96/124/96 97/125/97 33/56/98 32/55/99
s 3
f 97/125/100 98/126/101 34/57/102 33/56/103
s 4
f 98/126/104 99/127/105 35/58/106 34/57/107
s 5
f 99/127/108 100/128/109 36/59/110 35/58/111
s 6
f 100/128/112 101/129/113 37/60/114 36/59/115
s 7
f 101/129/116 102/130/117 38/61/118 37/60/119
s 8
f 102/130/120 103/131/121 39/62/122 38/61/123
s 9
f 103/131/124 104/132/125 40/63/126 39/62/127
s 10
f 104/132/128 95/122/129 31/53/130 40/63/131
s 1
f 31/54/95 32/55/94 42/66/132 41/65/133
s 2
f 32/55/99 33/56/98 43/67/134 42/66/135
s 3
f 33/56/103 34/57/102 44/68/136 43/67/137
s 4
f 34/57/107 35/58/106 45/69/138 44/68/139
s 5
f 35/58/111 36/59/110 46/70/140 45/69/141
s 6
f 36/59/115 37/60/114 47/71/142 46/70/143
s 7
f 37/60/119 38/61/118 48/72/144 47/71/145
s 8
f 38/61/123 39/62/122 49/73/146 48/72/147
s 9
f 39/62/127 40/63/126 50/74/148 49/73/149
s 10
f 40/63/131 31/53/130 41/64/150 50/74/151
s 1
f 41/65/133 42/66/132 52/77/2 51/76/1
s 2
f 42/66/135 43/67/134 53/78/6 52/77/5
s 3
f 43/67/137 44/68/136 54/79/10 53/78/9
s 4
f 44/68/139 45/69/138 55/80/14 54/79/13
s 5
f 45/69/141 46/70/140 56/81/18 55/80/17
s 6
f 46/70/143 47/71/142 57/82/22 56/81/21
s 7
f 47/71/145 48/72/144 58/83/26 57/82/25
s 8
f 48/72/147 49/73/146 59/84/30 58/83/29
s 9
f 49/73/149 50/74/148 60/85/34 59/84/33
s 10
f 50/74/151 41/64/150 51/75/38 60/85/37
f 62/88/40 61/86/39 11/32/152 20/31/153
s 9
f 63/89/36 62/88/35 20/31/154 19/30/155
s 8
f 64/90/32 63/89/31 19/30/156 18/29/157
s 7
f 65/91/28 64/90/27 18/29/158 17/28/159
s 6
f 66/92/24 65/91/23 17/28/160 16/27/161
s 5
f 67/93/20 66/92/19 16/27/162 15/26/163
s 4
f 68/94/16 67/93/15 15/26/164 14/25/165
s 3
f 69/95/12 68/94/11 14/25/166 13/24/167
s 2
f 70/96/8 69/95/7 13/24/168 12/23/169
s 1
f 61/87/4 70/96/3 12/23/170 11/22/171
s off
f 11/41/172 12/40/173 72/98/174 71/97/175
f 12/40/176 22/44/177 73/99/178 72/98/179
f 22/44/180 18/34/181 74/100/182 73/99/183
f 18/34/184 19/33/185 75/101/186 74/100/187
f 19/33/188 20/42/189 76/102/190 75/101/191
f 20/42/192 11/41/193 71/97/194 76/102/195
f 72/98/196 73/99/197 74/100/198 75/101/199 76/102/200 71/97/201
s 13
f 12/40/202 13/39/203 78/104/61 77/103/60
s 15
f 13/39/204 14/38/205 79/105/69 78/104/68
s 16
f 14/38/206 15/37/207 80/106/73 79/105/72
s 17
f 15/37/208 16/36/209 81/107/77 80/106/76
s 18
f 16/36/210 17/35/211 82/108/81 81/107/80
s 19
f 17/35/212 18/34/213 83/109/85 82/108/84
s 20
f 18/34/214 22/44/215 84/110/89 83/109/88
s 14
f 22/44/216 12/40/217 77/103/65 84/110/64
s 1
f 105/134/218 106/135/219 86/113/220 85/112/221
s 2
f 106/135/222 107/136/223 87/114/224 86/113/225
s 3
f 107/136/226 108/137/227 88/115/228 87/114/229
s 4
f 108/137/230 109/138/231 89/116/232 88/115/233
s 5
f 109/138/234 110/139/235 90/117/236 89/116/237
s 6
f 110/139/238 111/140/239 91/118/240 90/117/241
s 7
f 111/140/242 112/141/243 92/119/244 91/118/245
s 8
f 112/141/246 113/142/247 93/120/248 92/119/249
s 9
f 113/142/250 114/143/251 94/121/252 93/120/253
s 10
f 114/143/254 105/133/255 85/111/256 94/121/257
s 1
f 85/112/221 86/113/220 96/124/93 95/123/92
s 2
f 86/113/225 87/114/224 97/125/97 96/124/96
s 3
f 87/114/229 88/115/228 98/126/101 97/125/100
s 4
f 88/115/233 89/116/232 99/127/105 98/126/104
s 5
f 89/116/237 90/117/236 100/128/109 99/127/108
s 6
f 90/117/241 91/118/240 101/129/113 100/128/112
s 7
f 91/118/245 92/119/244 102/130/117 101/129/116
s 8
f 92/119/249 93/120/248 103/131/121 102/130/120
s 9
f 93/120/253 94/121/252 104/132/125 103/131/124
s 10
f 94/121/257 85/111/256 95/122/129 104/132/128
s 1
f 1/11/258 2/12/259 106/135/219 105/134/218
s 2
f 2/12/260 3/13/261 107/136/223 106/135/222
s 3
f 3/13/262 4/14/263 108/137/227 107/136/226
s 4
f 4/14/264 5/15/265 109/138/231 108/137/230
s 5
f 5/15/266 6/16/267 110/139/235 109/138/234
s 6
f 6/16/268 7/17/269 111/140/239 110/139/238
s 7
f 7/17/270 8/18/271 112/141/243 111/140/242
s 8
f 8/18/272 9/19/273 113/142/247 112/141/246
s 9
f 9/19/274 10/20/275 114/143/251 113/142/250
s 10
f 10/20/276 1/21/277 105/133/255 114/143/254
