# This file uses centimeters as units for non-parametric coordinates.

mtllib stick_1.mtl
v 0.011011 0.658585 -0.008000
v 0.004206 0.658585 -0.012944
v -0.004206 0.658585 -0.012944
v -0.011011 0.658585 -0.008000
v -0.013611 0.658585 0.000000
v -0.011011 0.658585 0.008000
v -0.004206 0.658585 0.012944
v 0.004206 0.658585 0.012944
v 0.011011 0.658585 0.008000
v 0.013611 0.658585 0.000000
v 0.007906 1.080886 -0.005744
v 0.003020 1.080886 -0.009294
v -0.003020 1.080886 -0.009294
v -0.007906 1.080886 -0.005744
v -0.009772 1.080886 0.000000
v -0.007906 1.080886 0.005744
v -0.003020 1.080886 0.009294
v 0.003020 1.080886 0.009294
v 0.007906 1.080886 0.005744
v 0.009772 1.080886 -0.000000
v 0.000000 0.658585 0.000000
v 0.002981 1.101808 0.000000
v -0.029715 1.374112 -0.005000
v -0.032965 1.374112 -0.005000
v -0.026025 1.374112 -0.000000
v -0.035593 1.374112 -0.003090
v -0.036597 1.374112 -0.000000
v -0.035593 1.374112 0.003090
v -0.032965 1.374112 0.005000
v -0.029715 1.374112 0.005000
v 0.037837 1.247284 -0.003351
v 0.034986 1.247284 -0.005422
v 0.028048 1.247284 0.000000
v 0.034986 1.247284 0.005422
v 0.037837 1.247284 0.003351
v 0.038926 1.247284 -0.000000
v 0.022902 0.766679 -0.007436
v 0.016577 0.766679 -0.012032
v 0.008758 0.766679 -0.012032
v 0.002433 0.766679 -0.007436
v 0.000016 0.766679 0.000000
v 0.002433 0.766679 0.007436
v 0.008758 0.766679 0.012032
v 0.016577 0.766679 0.012032
v 0.022902 0.766679 0.007436
v 0.025318 0.766679 -0.000000
v 0.022126 0.776699 -0.006872
v 0.016280 0.776699 -0.011119
v 0.009054 0.776699 -0.011119
v 0.003209 0.776699 -0.006872
v 0.000976 0.776699 0.000000
v 0.003209 0.776699 0.006872
v 0.009054 0.776699 0.011119
v 0.016280 0.776699 0.011119
v 0.022126 0.776699 0.006872
v 0.024358 0.776699 -0.000000
v 0.002344 0.967841 -0.006308
v -0.003022 0.967841 -0.010206
v -0.009654 0.967841 -0.010206
v -0.015020 0.967841 -0.006308
v -0.017070 0.967841 0.000000
v -0.015020 0.967841 0.006308
v -0.009654 0.967841 0.010206
v -0.003022 0.967841 0.010206
v 0.002344 0.967841 0.006308
v 0.004393 0.967841 -0.000000
v 0.002293 0.976214 -0.006271
v 0.004331 0.976214 -0.000000
v 0.002293 0.976214 0.006271
v -0.003041 0.976214 0.010147
v -0.009635 0.976214 0.010147
v -0.014970 0.976214 0.006271
v -0.017007 0.976214 0.000000
v -0.014970 0.976214 -0.006271
v -0.009635 0.976214 -0.010147
v -0.003041 0.976214 -0.010147
v 0.032019 1.166581 -0.004512
v 0.028181 1.166581 -0.007300
v 0.023121 1.168604 0.000000
v 0.028181 1.166581 0.007300
v 0.032019 1.166581 0.004512
v 0.033485 1.166581 -0.000000
v 0.000583 1.102709 -0.008974
v -0.005248 1.102709 -0.008974
v -0.009966 1.102709 -0.005546
v -0.011768 1.102709 0.000000
v -0.009966 1.102709 0.005546
v -0.005248 1.102709 0.008974
v 0.000583 1.102709 0.008974
v 0.000822 1.122074 -0.000000
vt 0.626409 0.064409
vt 0.548284 0.007647
vt 0.451716 0.007647
vt 0.373591 0.064409
vt 0.343750 0.156250
vt 0.373591 0.248091
vt 0.451716 0.304853
vt 0.548284 0.304853
vt 0.626409 0.248091
vt 0.656250 0.156250
vt 0.375000 0.312500
vt 0.400000 0.312500
vt 0.425000 0.312500
vt 0.450000 0.312500
vt 0.475000 0.312500
vt 0.500000 0.312500
vt 0.525000 0.312500
vt 0.550000 0.312500
vt 0.575000 0.312500
vt 0.600000 0.312500
vt 0.625000 0.312500
vt 0.375000 0.688440
vt 0.400000 0.688440
vt 0.425000 0.688440
vt 0.450000 0.688440
vt 0.475000 0.688440
vt 0.500000 0.688440
vt 0.525000 0.688440
vt 0.550000 0.688440
vt 0.575000 0.688440
vt 0.600000 0.688440
vt 0.625000 0.688440
vt 0.626409 0.751909
vt 0.548284 0.695147
vt 0.451716 0.695147
vt 0.373591 0.751909
vt 0.343750 0.843750
vt 0.373591 0.935591
vt 0.451716 0.992353
vt 0.548284 0.992353
vt 0.626409 0.935591
vt 0.656250 0.843750
vt 0.500000 0.150000
vt 0.500000 0.837500
vt 0.548284 0.992353
vt 0.451716 0.992353
vt 0.500000 0.837500
vt 0.373591 0.935591
vt 0.343750 0.843750
vt 0.373591 0.751909
vt 0.451716 0.695147
vt 0.548284 0.695147
vt 0.626409 0.935591
vt 0.548284 0.992353
vt 0.500000 0.837500
vt 0.548284 0.695147
vt 0.626409 0.751909
vt 0.656250 0.843750
vt 0.625000 0.406485
vt 0.375000 0.406485
vt 0.400000 0.406485
vt 0.425000 0.406485
vt 0.450000 0.406485
vt 0.475000 0.406485
vt 0.500000 0.406485
vt 0.525000 0.406485
vt 0.550000 0.406485
vt 0.575000 0.406485
vt 0.600000 0.406485
vt 0.625000 0.500470
vt 0.375000 0.500470
vt 0.400000 0.500470
vt 0.425000 0.500470
vt 0.450000 0.500470
vt 0.475000 0.500470
vt 0.500000 0.500470
vt 0.525000 0.500470
vt 0.550000 0.500470
vt 0.575000 0.500470
vt 0.600000 0.500470
vt 0.625000 0.594455
vt 0.375000 0.594455
vt 0.400000 0.594455
vt 0.425000 0.594455
vt 0.450000 0.594455
vt 0.475000 0.594455
vt 0.500000 0.594455
vt 0.525000 0.594455
vt 0.550000 0.594455
vt 0.575000 0.594455
vt 0.600000 0.594455
vt 0.625000 0.600564
vt 0.375000 0.600564
vt 0.600000 0.600564
vt 0.575000 0.600564
vt 0.550000 0.600564
vt 0.525000 0.600564
vt 0.500000 0.600564
vt 0.475000 0.600564
vt 0.450000 0.600564
vt 0.425000 0.600564
vt 0.400000 0.600564
vt 0.626409 0.935591
vt 0.548284 0.992353
vt 0.500000 0.837500
vt 0.548284 0.695147
vt 0.626409 0.751909
vt 0.656250 0.843750
vt 0.548284 0.992353
vt 0.451716 0.992353
vt 0.373591 0.935591
vt 0.343750 0.843750
vt 0.373591 0.751909
vt 0.451716 0.695147
vt 0.548284 0.695147
vt 0.500000 0.837500
vn 0.586667 0.061662 -0.807478
vn 0.586769 0.058784 -0.807618
vn 0.587641 -0.022111 -0.808819
vn 0.587593 -0.025529 -0.808753
vn 0.000000 0.004827 -0.999988
vn 0.000000 0.005101 -0.999987
vn -0.000000 0.007945 -0.999968
vn -0.000000 0.008098 -0.999967
vn -0.586988 -0.052075 -0.807919
vn -0.587092 -0.048579 -0.808062
vn -0.587346 0.038649 -0.808412
vn -0.587277 0.041604 -0.808316
vn -0.947506 -0.086326 -0.307863
vn -0.947621 -0.084924 -0.307901
vn -0.949340 0.060060 -0.308459
vn -0.949259 0.061446 -0.308433
vn -0.947621 -0.084924 0.307901
vn -0.947506 -0.086326 0.307863
vn -0.949259 0.061446 0.308433
vn -0.949340 0.060060 0.308459
vn -0.587091 -0.048579 0.808062
vn -0.586988 -0.052075 0.807919
vn -0.587277 0.041604 0.808316
vn -0.587346 0.038649 0.808412
vn 0.000000 0.005102 0.999987
vn 0.000000 0.004827 0.999988
vn 0.000000 0.008098 0.999967
vn 0.000000 0.007945 0.999968
vn 0.586769 0.058784 0.807618
vn 0.586667 0.061662 0.807477
vn 0.587594 -0.025529 0.808753
vn 0.587642 -0.022111 0.808819
vn 0.946787 0.094645 0.307630
vn 0.946676 0.095868 0.307594
vn 0.950074 -0.045449 0.308697
vn 0.950143 -0.043813 0.308720
vn 0.946676 0.095868 -0.307593
vn 0.946787 0.094645 -0.307630
vn 0.950143 -0.043813 -0.308720
vn 0.950074 -0.045449 -0.308698
vn 0.000000 -1.000000 -0.000001
vn 0.000000 -1.000000 0.000000
vn 0.000000 -1.000000 0.000000
vn 0.000000 -1.000000 0.000000
vn 0.000000 -1.000000 0.000001
vn 0.000000 -1.000000 -0.000000
vn 0.000000 -1.000000 -0.000001
vn 0.000000 -1.000000 0.000000
vn 0.000000 -1.000000 0.000001
vn 0.000000 -1.000000 0.000001
vn 0.000000 -1.000000 0.000001
vn 0.000000 1.000000 0.000006
vn 0.000000 1.000000 0.000019
vn 0.000000 1.000000 0.000008
vn 0.000000 1.000000 -0.000017
vn 0.000000 1.000000 -0.000003
vn 0.000000 1.000000 -0.000002
vn 0.000000 1.000000 0.000000
vn 0.000000 1.000000 0.000000
vn 0.000000 1.000000 0.000000
vn 0.000000 1.000000 0.000000
vn 0.000000 1.000000 0.000000
vn 0.000000 1.000000 0.000000
vn 0.000000 1.000000 0.000010
vn 0.000000 1.000000 0.000008
vn -0.000000 0.014641 -0.999893
vn -0.000000 0.014641 -0.999893
vn -0.000000 0.014641 -0.999893
vn -0.000000 0.014641 -0.999893
vn 0.917062 0.103044 -0.385200
vn 0.917950 0.103124 -0.383059
vn 0.911471 0.102533 -0.398382
vn 0.911471 0.102533 -0.398382
vn -0.587105 -0.048125 -0.808079
vn -0.587105 -0.048125 -0.808079
vn -0.587105 -0.048125 -0.808079
vn -0.587105 -0.048125 -0.808079
vn -0.947477 -0.086679 -0.307854
vn -0.947477 -0.086679 -0.307854
vn -0.947477 -0.086679 -0.307854
vn -0.947477 -0.086679 -0.307854
vn -0.947477 -0.086679 0.307854
vn -0.947477 -0.086679 0.307854
vn -0.947477 -0.086679 0.307854
vn -0.947477 -0.086679 0.307854
vn -0.587104 -0.048124 0.808080
vn -0.587104 -0.048124 0.808080
vn -0.587104 -0.048124 0.808080
vn -0.587104 -0.048124 0.808080
vn 0.000000 0.014641 0.999893
vn 0.000000 0.014641 0.999893
vn 0.000000 0.014641 0.999893
vn 0.000000 0.014641 0.999893
vn 0.917950 0.103124 0.383059
vn 0.917062 0.103044 0.385200
vn 0.911471 0.102533 0.398382
vn 0.911470 0.102533 0.398382
vn 0.586690 -0.061003 -0.807510
vn 0.582313 -0.136136 -0.801485
vn 0.587507 -0.030726 -0.808635
vn 0.587507 -0.030726 -0.808635
vn -0.749833 0.131430 -0.648442
vn -0.768625 0.186755 -0.611832
vn -0.721248 0.061217 -0.689966
vn -0.721248 0.061217 -0.689966
vn 0.582312 -0.136136 0.801486
vn 0.586690 -0.061003 0.807511
vn 0.587507 -0.030726 0.808636
vn 0.587507 -0.030726 0.808636
vn -0.768624 0.186754 0.611833
vn -0.749832 0.131430 0.648443
vn -0.721248 0.061217 0.689967
vn -0.721248 0.061217 0.689967
vn 0.931816 -0.200134 0.302764
vn 0.938969 -0.158929 0.305088
vn 0.949108 -0.063986 0.308383
vn 0.949108 -0.063986 0.308383
vn 0.938969 -0.158929 -0.305089
vn 0.931816 -0.200134 -0.302764
vn 0.949108 -0.063986 -0.308383
vn 0.949108 -0.063986 -0.308383
vn 0.586715 -0.060327 -0.807544
vn 0.586715 -0.060327 -0.807544
vn 0.586928 -0.053982 -0.807837
vn 0.587341 -0.038873 -0.808406
vn 0.000000 0.008443 -0.999964
vn 0.000000 0.008443 -0.999964
vn -0.000000 0.011549 -0.999933
vn -0.000000 0.028743 -0.999587
vn -0.586036 0.077094 -0.806609
vn -0.586036 0.077094 -0.806609
vn -0.586009 0.077689 -0.806572
vn -0.585956 0.078829 -0.806499
vn -0.944294 0.119042 -0.306820
vn -0.944294 0.119042 -0.306820
vn -0.944471 0.117475 -0.306877
vn -0.944540 0.116859 -0.306900
vn -0.944294 0.119042 0.306820
vn -0.944294 0.119042 0.306820
vn -0.944540 0.116859 0.306900
vn -0.944471 0.117475 0.306877
vn -0.586036 0.077094 0.806609
vn -0.586036 0.077094 0.806609
vn -0.585956 0.078829 0.806499
vn -0.586009 0.077689 0.806572
vn 0.000000 0.008443 0.999964
vn 0.000000 0.008443 0.999964
vn 0.000000 0.028743 0.999587
vn 0.000000 0.011549 0.999933
vn 0.586715 -0.060327 0.807543
vn 0.586715 -0.060327 0.807543
vn 0.587341 -0.038873 0.808406
vn 0.586928 -0.053982 0.807837
vn 0.946051 -0.102465 0.307390
vn 0.946051 -0.102465 0.307390
vn 0.947429 -0.087263 0.307838
vn 0.947019 -0.092043 0.307705
vn 0.946051 -0.102465 -0.307390
vn 0.946051 -0.102465 -0.307390
vn 0.947019 -0.092043 -0.307705
vn 0.947429 -0.087263 -0.307838
vn 0.586570 0.064271 -0.807344
vn 0.586481 0.066572 -0.807222
vn -0.000000 0.007967 -0.999968
vn -0.000000 0.023830 -0.999716
vn -0.587119 -0.047597 -0.808100
vn -0.587442 -0.034183 -0.808544
vn -0.948024 -0.079792 -0.308032
vn -0.948344 -0.075475 -0.308135
vn -0.948344 -0.075475 0.308136
vn -0.948024 -0.079792 0.308032
vn -0.587442 -0.034183 0.808544
vn -0.587119 -0.047597 0.808100
vn 0.000000 0.023830 0.999716
vn 0.000000 0.007967 0.999968
vn 0.586481 0.066572 0.807222
vn 0.586570 0.064271 0.807344
vn 0.946457 0.098231 0.307522
vn 0.946440 0.098410 0.307517
vn 0.946440 0.098410 -0.307517
vn 0.946457 0.098231 -0.307522
vn 0.949897 -0.049376 -0.308640
vn 0.949897 -0.049376 -0.308640
vn 0.949897 -0.049376 0.308640
vn 0.949897 -0.049376 0.308640
vn 0.587564 -0.027429 0.808713
vn 0.587564 -0.027429 0.808713
vn 0.000000 0.008153 0.999967
vn 0.000000 0.008153 0.999967
vn -0.587224 0.043703 0.808244
vn -0.587224 0.043703 0.808244
vn -0.949008 0.065601 0.308352
vn -0.949008 0.065601 0.308352
vn -0.949008 0.065601 -0.308351
vn -0.949008 0.065601 -0.308351
vn -0.587224 0.043703 -0.808244
vn -0.587224 0.043703 -0.808244
vn -0.000000 0.008153 -0.999967
vn -0.000000 0.008153 -0.999967
vn 0.587564 -0.027429 -0.808713
vn 0.587564 -0.027429 -0.808713
vn 0.580957 -0.151978 -0.799620
vn 0.580957 -0.151978 -0.799620
vn -0.783533 0.240262 -0.573018
vn -0.783533 0.240262 -0.573018
vn -0.783533 0.240262 0.573019
vn -0.783533 0.240262 0.573019
vn 0.580956 -0.151978 0.799620
vn 0.580956 -0.151978 0.799620
vn 0.919739 -0.254508 0.298840
vn 0.919739 -0.254508 0.298840
vn 0.919739 -0.254508 -0.298840
vn 0.919739 -0.254508 -0.298840
vn -0.000000 0.014641 -0.999893
vn -0.000000 0.014641 -0.999893
vn -0.587104 -0.048125 -0.808080
vn -0.587104 -0.048125 -0.808080
vn -0.947477 -0.086679 -0.307854
vn -0.947477 -0.086679 -0.307854
vn -0.947477 -0.086680 0.307854
vn -0.947477 -0.086680 0.307854
vn -0.587105 -0.048125 0.808079
vn -0.587105 -0.048125 0.808079
vn 0.000000 0.014641 0.999893
vn 0.000000 0.014641 0.999893
vn 0.963194 0.107028 0.246580
vn 0.963194 0.107028 0.246580
vn 0.963194 0.107028 -0.246580
vn 0.963194 0.107028 -0.246580
s 1
usemtl initialShadingGroup
f 57/82/1 58/83/2 76/102/3 67/93/4
s 2
f 58/83/5 59/84/6 75/101/7 76/102/8
s 3
f 59/84/9 60/85/10 74/100/11 75/101/12
s 4
f 60/85/13 61/86/14 73/99/15 74/100/16
s 5
f 61/86/17 62/87/18 72/98/19 73/99/20
s 6
f 62/87/21 63/88/22 71/97/23 72/98/24
s 7
f 63/88/25 64/89/26 70/96/27 71/97/28
s 8
f 64/89/29 65/90/30 69/95/31 70/96/32
s 9
f 65/90/33 66/91/34 68/94/35 69/95/36
s 10
f 66/91/37 57/81/38 67/92/39 68/94/40
s 11
f 2/2/41 1/1/42 21/43/43
f 3/3/44 2/2/41 21/43/43
f 4/4/45 3/3/44 21/43/43
f 5/5/46 4/4/45 21/43/43
f 6/6/47 5/5/46 21/43/43
f 7/7/48 6/6/47 21/43/43
f 8/8/49 7/7/48 21/43/43
f 9/9/50 8/8/49 21/43/43
f 10/10/51 9/9/50 21/43/43
f 1/1/42 10/10/51 21/43/43
s 12
f 31/53/52 32/54/53 33/55/54
s 13
f 23/45/55 24/46/56 25/47/57
f 24/46/56 26/48/58 25/47/57
f 26/48/58 27/49/59 25/47/57
f 27/49/59 28/50/60 25/47/57
f 28/50/60 29/51/61 25/47/57
f 29/51/61 30/52/62 25/47/57
s 12
f 34/56/63 35/57/64 33/55/54
f 35/57/64 36/58/65 33/55/54
f 36/58/65 31/53/52 33/55/54
s 15
f 83/109/66 84/110/67 24/46/68 23/45/69
s 16
f 90/116/70 83/109/71 23/45/72 25/47/73
s 17
f 84/110/74 85/111/75 26/48/76 24/46/77
s 18
f 85/111/78 86/112/79 27/49/80 26/48/81
s 19
f 86/112/82 87/113/83 28/50/84 27/49/85
s 20
f 87/113/86 88/114/87 29/51/88 28/50/89
s 21
f 88/114/90 89/115/91 30/52/92 29/51/93
s 22
f 89/115/94 90/116/95 25/47/96 30/52/97
s 23
f 77/103/98 78/104/99 32/54/100 31/53/101
s 24
f 78/104/102 79/105/103 33/55/104 32/54/105
s 25
f 80/106/106 81/107/107 35/57/108 34/56/109
s 26
f 79/105/110 80/106/111 34/56/112 33/55/113
s 27
f 81/107/114 82/108/115 36/58/116 35/57/117
s 28
f 82/108/118 77/103/119 31/53/120 36/58/121
s 1
f 1/11/122 2/12/123 38/61/124 37/60/125
s 2
f 2/12/126 3/13/127 39/62/128 38/61/129
s 3
f 3/13/130 4/14/131 40/63/132 39/62/133
s 4
f 4/14/134 5/15/135 41/64/136 40/63/137
s 5
f 5/15/138 6/16/139 42/65/140 41/64/141
s 6
f 6/16/142 7/17/143 43/66/144 42/65/145
s 7
f 7/17/146 8/18/147 44/67/148 43/66/149
s 8
f 8/18/150 9/19/151 45/68/152 44/67/153
s 9
f 9/19/154 10/20/155 46/69/156 45/68/157
s 10
f 10/20/158 1/21/159 37/59/160 46/69/161
s 1
f 37/60/125 38/61/124 48/72/162 47/71/163
s 2
f 38/61/129 39/62/128 49/73/164 48/72/165
s 3
f 39/62/133 40/63/132 50/74/166 49/73/167
s 4
f 40/63/137 41/64/136 51/75/168 50/74/169
s 5
f 41/64/141 42/65/140 52/76/170 51/75/171
s 6
f 42/65/145 43/66/144 53/77/172 52/76/173
s 7
f 43/66/149 44/67/148 54/78/174 53/77/175
s 8
f 44/67/153 45/68/152 55/79/176 54/78/177
s 9
f 45/68/157 46/69/156 56/80/178 55/79/179
s 10
f 46/69/161 37/59/160 47/70/180 56/80/181
s 1
f 47/71/163 48/72/162 58/83/2 57/82/1
s 2
f 48/72/165 49/73/164 59/84/6 58/83/5
s 3
f 49/73/167 50/74/166 60/85/10 59/84/9
s 4
f 50/74/169 51/75/168 61/86/14 60/85/13
s 5
f 51/75/171 52/76/170 62/87/18 61/86/17
s 6
f 52/76/173 53/77/172 63/88/22 62/87/21
s 7
f 53/77/175 54/78/174 64/89/26 63/88/25
s 8
f 54/78/177 55/79/176 65/90/30 64/89/29
s 9
f 55/79/179 56/80/178 66/91/34 65/90/33
s 10
f 56/80/181 47/70/180 57/81/38 66/91/37
f 68/94/40 67/92/39 11/32/182 20/31/183
s 9
f 69/95/36 68/94/35 20/31/184 19/30/185
s 8
f 70/96/32 69/95/31 19/30/186 18/29/187
s 7
f 71/97/28 70/96/27 18/29/188 17/28/189
s 6
f 72/98/24 71/97/23 17/28/190 16/27/191
s 5
f 73/99/20 72/98/19 16/27/192 15/26/193
s 4
f 74/100/16 73/99/15 15/26/194 14/25/195
s 3
f 75/101/12 74/100/11 14/25/196 13/24/197
s 2
f 76/102/8 75/101/7 13/24/198 12/23/199
s 1
f 67/93/4 76/102/3 12/23/200 11/22/201
s 23
f 11/41/202 12/40/203 78/104/99 77/103/98
s 24
f 12/40/204 22/44/205 79/105/103 78/104/102
s 26
f 22/44/206 18/34/207 80/106/111 79/105/110
s 25
f 18/34/208 19/33/209 81/107/107 80/106/106
s 27
f 19/33/210 20/42/211 82/108/115 81/107/114
s 28
f 20/42/212 11/41/213 77/103/119 82/108/118
s 15
f 12/40/214 13/39/215 84/110/67 83/109/66
s 17
f 13/39/216 14/38/217 85/111/75 84/110/74
s 18
f 14/38/218 15/37/219 86/112/79 85/111/78
s 19
f 15/37/220 16/36/221 87/113/83 86/112/82
s 20
f 16/36/222 17/35/223 88/114/87 87/113/86
s 21
f 17/35/224 18/34/225 89/115/91 88/114/90
s 22
f 18/34/226 22/44/227 90/116/95 89/115/94
s 16
f 22/44/228 12/40/229 83/109/71 90/116/70
