# This file uses centimeters as units for non-parametric coordinates.

mtllib stone-1.mtl
v 0.379238 0.195412 -0.199039
v 0.243300 0.195412 -0.352481
v 0.051626 0.195412 -0.425173
v -0.151876 0.195412 -0.400464
v -0.320584 0.195412 -0.284013
v -0.415851 0.195412 -0.102498
v -0.415851 0.195412 0.102498
v -0.320584 0.195412 0.284013
v -0.151876 0.195412 0.400464
v 0.051625 0.195412 0.425173
v 0.243300 0.195412 0.352481
v 0.379237 0.195412 0.199039
v 0.428296 0.195412 0.000000
v 0.249215 0.394924 -0.161835
v 0.138687 0.394924 -0.286595
v -0.017160 0.394924 -0.345700
v -0.182623 0.394924 -0.325609
v -0.319796 0.394924 -0.230925
v -0.397256 0.394924 -0.083339
v -0.397256 0.394924 0.083339
v -0.319796 0.394924 0.230925
v -0.182623 0.394924 0.325609
v -0.017160 0.394924 0.345700
v 0.138687 0.394924 0.286595
v 0.249215 0.394924 0.161835
v 0.289104 0.394924 0.000000
v 0.000000 0.195412 0.000000
v -0.059135 0.394924 0.000000
v 0.449371 0.264787 -0.199039
v 0.336420 0.264787 -0.352481
v 0.104281 0.264787 -0.425173
v -0.142182 0.264787 -0.400464
v -0.346506 0.264787 -0.284013
v -0.461885 0.264787 -0.102498
v -0.461885 0.264787 0.102498
v -0.346507 0.264787 0.284013
v -0.142182 0.264787 0.400464
v 0.104281 0.264787 0.425173
v 0.336420 0.264787 0.352481
v 0.449371 0.264787 0.199039
v 0.513094 0.264787 0.000000
v 0.407689 0.351391 -0.194746
v 0.261383 0.351391 -0.344879
v 0.055089 0.351391 -0.416003
v -0.163935 0.351391 -0.391827
v -0.345512 0.351391 -0.277888
v -0.448045 0.351391 -0.100287
v -0.448045 0.351391 0.100287
v -0.345512 0.351391 0.277887
v -0.163935 0.351391 0.391827
v 0.055088 0.351391 0.416003
v 0.261383 0.351391 0.344879
v 0.407689 0.351391 0.194746
v 0.460490 0.351391 0.000000
vt 0.638353 0.083637
vt 0.588760 0.027659
vt 0.518834 0.001139
vt 0.444593 0.010154
vt 0.383045 0.052637
vt 0.348290 0.118857
vt 0.348290 0.193643
vt 0.383045 0.259863
vt 0.444593 0.302346
vt 0.518834 0.311361
vt 0.588760 0.284841
vt 0.638353 0.228863
vt 0.656250 0.156250
vt 0.375000 0.312500
vt 0.394231 0.312500
vt 0.413462 0.312500
vt 0.432692 0.312500
vt 0.451923 0.312500
vt 0.471154 0.312500
vt 0.490385 0.312500
vt 0.509615 0.312500
vt 0.528846 0.312500
vt 0.548077 0.312500
vt 0.567308 0.312500
vt 0.586539 0.312500
vt 0.605769 0.312500
vt 0.625000 0.312500
vt 0.375000 0.688440
vt 0.394231 0.688440
vt 0.413462 0.688440
vt 0.432692 0.688440
vt 0.451923 0.688440
vt 0.471154 0.688440
vt 0.490385 0.688440
vt 0.509615 0.688440
vt 0.528846 0.688440
vt 0.548077 0.688440
vt 0.567308 0.688440
vt 0.586539 0.688440
vt 0.605769 0.688440
vt 0.625000 0.688440
vt 0.638353 0.771137
vt 0.588760 0.715159
vt 0.518834 0.688639
vt 0.444593 0.697654
vt 0.383045 0.740137
vt 0.348290 0.806357
vt 0.348290 0.881143
vt 0.383045 0.947363
vt 0.444593 0.989846
vt 0.518834 0.998861
vt 0.588760 0.972341
vt 0.638353 0.916363
vt 0.656250 0.843750
vt 0.500000 0.150000
vt 0.500000 0.837500
vt 0.625000 0.437813
vt 0.375000 0.437813
vt 0.394231 0.437813
vt 0.413462 0.437813
vt 0.432692 0.437813
vt 0.451923 0.437813
vt 0.471154 0.437813
vt 0.490385 0.437813
vt 0.509615 0.437813
vt 0.528846 0.437813
vt 0.548077 0.437813
vt 0.567308 0.437813
vt 0.586539 0.437813
vt 0.605769 0.437813
vt 0.625000 0.563127
vt 0.375000 0.563127
vt 0.394231 0.563127
vt 0.413462 0.563127
vt 0.432692 0.563127
vt 0.451923 0.563127
vt 0.471154 0.563127
vt 0.490385 0.563127
vt 0.509615 0.563127
vt 0.528846 0.563127
vt 0.548077 0.563127
vt 0.567308 0.563127
vt 0.586539 0.563127
vt 0.605769 0.563127
vn 0.509529 0.816203 -0.272385
vn 0.361008 0.739678 -0.567935
vn 0.182997 0.932526 -0.311300
vn 0.237579 0.961102 -0.140852
vn 0.089653 0.553640 -0.827916
vn 0.031930 0.869485 -0.492925
vn -0.292830 0.378769 -0.877944
vn -0.227312 0.791931 -0.566722
vn -0.659917 0.354047 -0.662692
vn -0.484317 0.757918 -0.437032
vn -0.879894 0.406687 -0.245747
vn -0.625402 0.763782 -0.159718
vn -0.879894 0.406687 0.245747
vn -0.625402 0.763782 0.159717
vn -0.659917 0.354047 0.662692
vn -0.484317 0.757918 0.437032
vn -0.292830 0.378769 0.877944
vn -0.227313 0.791931 0.566723
vn 0.089653 0.553640 0.827916
vn 0.031930 0.869485 0.492925
vn 0.361008 0.739678 0.567935
vn 0.182997 0.932526 0.311300
vn 0.509529 0.816203 0.272385
vn 0.237579 0.961102 0.140852
vn 0.560161 0.828384 0.000000
vn 0.249162 0.968462 0.000000
vn 0.000000 -1.000000 0.000000
vn 0.000000 -1.000000 0.000000
vn 0.000000 -1.000000 0.000000
vn 0.000000 -1.000000 0.000000
vn 0.000000 -1.000000 0.000000
vn 0.000000 -1.000000 0.000000
vn 0.000000 -1.000000 0.000000
vn 0.000000 -1.000000 0.000000
vn 0.000000 -1.000000 0.000000
vn 0.000000 -1.000000 -0.000000
vn 0.000000 -1.000000 -0.000000
vn 0.000000 -1.000000 0.000000
vn 0.000000 -1.000000 0.000000
vn 0.000000 -1.000000 0.000000
vn 0.000000 1.000000 -0.000000
vn 0.000000 1.000000 -0.000000
vn 0.000000 1.000000 -0.000000
vn 0.000000 1.000000 -0.000000
vn 0.000000 1.000000 -0.000000
vn 0.000000 1.000000 0.000000
vn 0.000000 1.000000 0.000000
vn 0.000000 1.000000 0.000000
vn 0.000000 1.000000 -0.000000
vn 0.000000 1.000000 -0.000000
vn 0.000000 1.000000 -0.000000
vn 0.000000 1.000000 -0.000000
vn 0.000000 1.000000 0.000000
vn 0.000000 1.000000 0.000000
vn 0.620541 -0.710613 -0.331599
vn 0.444343 -0.499880 -0.743424
vn 0.583610 -0.042641 -0.810914
vn 0.881017 -0.141491 -0.451431
vn 0.077889 -0.119982 -0.989716
vn 0.132575 0.037764 -0.990453
vn -0.329762 -0.007181 -0.944037
vn -0.308887 0.019553 -0.950898
vn -0.685481 -0.241850 -0.686749
vn -0.706088 -0.086917 -0.702770
vn -0.835963 -0.496080 -0.234670
vn -0.949119 -0.177077 -0.260416
vn -0.835963 -0.496081 0.234669
vn -0.949119 -0.177077 0.260415
vn -0.685482 -0.241851 0.686748
vn -0.706088 -0.086917 0.702770
vn -0.329763 -0.007181 0.944036
vn -0.308888 0.019554 0.950898
vn 0.077889 -0.119982 0.989716
vn 0.132575 0.037764 0.990453
vn 0.444343 -0.499879 0.743425
vn 0.583610 -0.042640 0.810914
vn 0.620541 -0.710613 0.331599
vn 0.881016 -0.141491 0.451432
vn 0.667138 -0.744935 0.000000
vn 0.984057 -0.177851 0.000000
s 1
usemtl initialShadingGroup
f 42/72/1 43/73/2 15/29/3 14/28/4
f 43/73/2 44/74/5 16/30/6 15/29/3
f 44/74/5 45/75/7 17/31/8 16/30/6
f 45/75/7 46/76/9 18/32/10 17/31/8
f 46/76/9 47/77/11 19/33/12 18/32/10
f 47/77/11 48/78/13 20/34/14 19/33/12
f 48/78/13 49/79/15 21/35/16 20/34/14
f 49/79/15 50/80/17 22/36/18 21/35/16
f 50/80/17 51/81/19 23/37/20 22/36/18
f 51/81/19 52/82/21 24/38/22 23/37/20
f 52/82/21 53/83/23 25/39/24 24/38/22
f 53/83/23 54/84/25 26/40/26 25/39/24
f 54/84/25 42/71/1 14/41/4 26/40/26
s 2
f 2/2/27 1/1/28 27/55/29
f 3/3/30 2/2/27 27/55/29
f 4/4/31 3/3/30 27/55/29
f 5/5/32 4/4/31 27/55/29
f 6/6/33 5/5/32 27/55/29
f 7/7/34 6/6/33 27/55/29
f 8/8/35 7/7/34 27/55/29
f 9/9/36 8/8/35 27/55/29
f 10/10/37 9/9/36 27/55/29
f 11/11/38 10/10/37 27/55/29
f 12/12/39 11/11/38 27/55/29
f 13/13/40 12/12/39 27/55/29
f 1/1/28 13/13/40 27/55/29
s 3
f 14/53/41 15/52/42 28/56/43
f 15/52/42 16/51/44 28/56/43
f 16/51/44 17/50/45 28/56/43
f 17/50/45 18/49/46 28/56/43
f 18/49/46 19/48/47 28/56/43
f 19/48/47 20/47/48 28/56/43
f 20/47/48 21/46/49 28/56/43
f 21/46/49 22/45/50 28/56/43
f 22/45/50 23/44/51 28/56/43
f 23/44/51 24/43/52 28/56/43
f 24/43/52 25/42/53 28/56/43
f 25/42/53 26/54/54 28/56/43
f 26/54/54 14/53/41 28/56/43
s 1
f 1/14/55 2/15/56 30/59/57 29/58/58
f 2/15/56 3/16/59 31/60/60 30/59/57
f 3/16/59 4/17/61 32/61/62 31/60/60
f 4/17/61 5/18/63 33/62/64 32/61/62
f 5/18/63 6/19/65 34/63/66 33/62/64
f 6/19/65 7/20/67 35/64/68 34/63/66
f 7/20/67 8/21/69 36/65/70 35/64/68
f 8/21/69 9/22/71 37/66/72 36/65/70
f 9/22/71 10/23/73 38/67/74 37/66/72
f 10/23/73 11/24/75 39/68/76 38/67/74
f 11/24/75 12/25/77 40/69/78 39/68/76
f 12/25/77 13/26/79 41/70/80 40/69/78
f 13/26/79 1/27/55 29/57/58 41/70/80
f 29/58/58 30/59/57 43/73/2 42/72/1
f 30/59/57 31/60/60 44/74/5 43/73/2
f 31/60/60 32/61/62 45/75/7 44/74/5
f 32/61/62 33/62/64 46/76/9 45/75/7
f 33/62/64 34/63/66 47/77/11 46/76/9
f 34/63/66 35/64/68 48/78/13 47/77/11
f 35/64/68 36/65/70 49/79/15 48/78/13
f 36/65/70 37/66/72 50/80/17 49/79/15
f 37/66/72 38/67/74 51/81/19 50/80/17
f 38/67/74 39/68/76 52/82/21 51/81/19
f 39/68/76 40/69/78 53/83/23 52/82/21
f 40/69/78 41/70/80 54/84/25 53/83/23
f 41/70/80 29/57/58 42/71/1 54/84/25
